<svg width="44" height="54" viewBox="0 0 44 54" fill="none" xmlns="http://www.w3.org/2000/svg">
<path fill-rule="evenodd" clip-rule="evenodd" d="M9.75338 35.7356L7.03583 40.4345L4.31829 45.1335L5.36496 39.8071L6.41162 34.4808L8.0825 35.1082L9.75338 35.7356Z" fill="#FFD42A"/>
<path d="M9.78457 35.6802L5.60596 33.2677L4.55048 35.0958L8.72909 37.5084L9.78457 35.6802Z" fill="#FFD42A"/>
<path d="M10.1331 29.6484L8.30493 28.5929L5.59084 33.2938L7.41899 34.3493L10.1331 29.6484Z" fill="#FFD42A"/>
<path fill-rule="evenodd" clip-rule="evenodd" d="M25.6262 36.7956L22.9086 41.4946L20.1911 46.1935L21.2378 40.8672L22.2844 35.5409L23.9553 36.1683L25.6262 36.7956Z" fill="#FFD42A"/>
<path d="M25.6574 36.7403L21.4788 34.3278L20.4233 36.1559L24.6019 38.5684L25.6574 36.7403Z" fill="#FFD42A"/>
<path d="M26.0059 30.7086L24.1777 29.6531L21.4636 34.354L23.2918 35.4095L26.0059 30.7086Z" fill="#FFD42A"/>
<path fill-rule="evenodd" clip-rule="evenodd" d="M18.5616 0.800049C22.6537 0.800049 26.1605 3.11683 28.0248 6.45581C29.0744 5.66973 30.415 5.16104 31.8861 5.16104C35.2296 5.16104 37.9431 7.60318 37.9431 10.6123C37.9431 11.288 37.8147 11.9227 37.5647 12.5202C41.3673 14.0487 44.0002 17.5113 44.0002 21.5147C44.0002 26.9507 39.1376 31.3269 33.0975 31.3269H11.2931C5.25298 31.3269 0.390381 26.9507 0.390381 21.5147C0.390381 17.2082 3.46251 13.5756 7.73394 12.2476C7.73394 12.0625 7.6588 11.8912 7.6588 11.7027C7.6588 5.68449 12.5433 0.800049 18.5616 0.800049Z" fill="#B0EFFF"/>
<path fill-rule="evenodd" clip-rule="evenodd" d="M20.394 32.7127L14.9589 42.1106L9.52379 51.5085L11.6171 40.8559L13.7104 30.2032L17.0522 31.458L20.394 32.7127Z" fill="#FFD42A"/>
<path d="M20.4561 32.6023L12.0989 27.7772L9.98792 31.4335L18.3451 36.2586L20.4561 32.6023Z" fill="#FFD42A"/>
<path d="M21.1529 20.5384L17.4966 18.4275L12.0684 27.8294L15.7247 29.9403L21.1529 20.5384Z" fill="#FFD42A"/>
<path fill-rule="evenodd" clip-rule="evenodd" d="M17.8341 34.2343C17.8341 35.0371 17.1832 35.688 16.3804 35.688C15.5776 35.688 14.9268 35.0371 14.9268 34.2343C14.9268 33.4315 15.5776 32.7806 16.3804 32.7806C17.1832 32.7806 17.8341 33.4315 17.8341 34.2343Z" fill="#B0EFFF"/>
<path fill-rule="evenodd" clip-rule="evenodd" d="M26.5562 34.2343C26.5562 35.0371 25.9054 35.688 25.1026 35.688C24.2997 35.688 23.6489 35.0371 23.6489 34.2343C23.6489 33.4315 24.2997 32.7806 25.1026 32.7806C25.9054 32.7806 26.5562 33.4315 26.5562 34.2343Z" fill="#B0EFFF"/>
<path fill-rule="evenodd" clip-rule="evenodd" d="M35.2779 34.2343C35.2779 35.0371 34.6271 35.688 33.8243 35.688C33.0214 35.688 32.3706 35.0371 32.3706 34.2343C32.3706 33.4315 33.0214 32.7806 33.8243 32.7806C34.6271 32.7806 35.2779 33.4315 35.2779 34.2343Z" fill="#B0EFFF"/>
<path fill-rule="evenodd" clip-rule="evenodd" d="M14.9271 40.0489C14.9271 40.8517 14.2763 41.5025 13.4734 41.5025C12.6706 41.5025 12.0198 40.8517 12.0198 40.0489C12.0198 39.246 12.6706 38.5952 13.4734 38.5952C14.2763 38.5952 14.9271 39.246 14.9271 40.0489Z" fill="#B0EFFF"/>
<path fill-rule="evenodd" clip-rule="evenodd" d="M23.6488 40.0489C23.6488 40.8517 22.9979 41.5025 22.1951 41.5025C21.3923 41.5025 20.7415 40.8517 20.7415 40.0489C20.7415 39.246 21.3923 38.5952 22.1951 38.5952C22.9979 38.5952 23.6488 39.246 23.6488 40.0489Z" fill="#B0EFFF"/>
<path fill-rule="evenodd" clip-rule="evenodd" d="M32.3709 40.0489C32.3709 40.8517 31.7201 41.5025 30.9173 41.5025C30.1144 41.5025 29.4636 40.8517 29.4636 40.0489C29.4636 39.246 30.1144 38.5952 30.9173 38.5952C31.7201 38.5952 32.3709 39.246 32.3709 40.0489Z" fill="#B0EFFF"/>
<path fill-rule="evenodd" clip-rule="evenodd" d="M12.0194 45.8636C12.0194 46.6664 11.3686 47.3172 10.5657 47.3172C9.76288 47.3172 9.11206 46.6664 9.11206 45.8636C9.11206 45.0607 9.76288 44.4099 10.5657 44.4099C11.3686 44.4099 12.0194 45.0607 12.0194 45.8636Z" fill="#B0EFFF"/>
<path fill-rule="evenodd" clip-rule="evenodd" d="M20.7415 45.8636C20.7415 46.6664 20.0907 47.3172 19.2879 47.3172C18.4851 47.3172 17.8342 46.6664 17.8342 45.8636C17.8342 45.0607 18.4851 44.4099 19.2879 44.4099C20.0907 44.4099 20.7415 45.0607 20.7415 45.8636Z" fill="#B0EFFF"/>
<path fill-rule="evenodd" clip-rule="evenodd" d="M29.4635 45.8636C29.4635 46.6664 28.8126 47.3172 28.0098 47.3172C27.207 47.3172 26.5562 46.6664 26.5562 45.8636C26.5562 45.0607 27.207 44.4099 28.0098 44.4099C28.8126 44.4099 29.4635 45.0607 29.4635 45.8636Z" fill="#B0EFFF"/>
</svg>
