<svg width="44" height="45" viewBox="0 0 44 45" fill="none" xmlns="http://www.w3.org/2000/svg">
<path fill-rule="evenodd" clip-rule="evenodd" d="M30.7054 29.4711C30.7054 37.7931 24.1984 44.5393 16.1716 44.5393C8.14472 44.5393 1.6377 37.7931 1.6377 29.4711C1.6377 21.1492 8.14472 14.403 16.1716 14.403C24.1984 14.403 30.7054 21.1492 30.7054 29.4711Z" fill="#CCCCCC"/>
<path fill-rule="evenodd" clip-rule="evenodd" d="M18.3338 0.708496C22.4625 0.708496 26.0007 3.04601 27.8817 6.41486C28.9407 5.62175 30.2932 5.10851 31.7775 5.10851C35.1509 5.10851 37.8888 7.5725 37.8888 10.6085C37.8888 11.2903 37.7592 11.9307 37.5069 12.5335C41.3436 14.0757 44 17.5693 44 21.6085C44 27.0931 39.0939 31.5085 32.9998 31.5085H11.0002C4.90611 31.5085 0 27.0931 0 21.6085C0 17.2635 3.09962 13.5983 7.40927 12.2585C7.40927 12.0717 7.33346 11.8989 7.33346 11.7087C7.33346 5.63664 12.2616 0.708496 18.3338 0.708496Z" fill="#232323"/>
<path fill-rule="evenodd" clip-rule="evenodd" d="M13.2114 34.8802L13.2379 34.9403L13.3032 34.9332L13.2644 34.9862L13.3032 35.0392L13.2379 35.0321L13.2114 35.0922L13.1849 35.0321L13.1196 35.0392L13.1584 34.9862L13.1196 34.9332L13.1849 34.9403L13.2114 34.8802Z" fill="#232323" stroke="#232323" stroke-width="0.8"/>
<path fill-rule="evenodd" clip-rule="evenodd" d="M30.6514 34.8802L30.6779 34.9403L30.7432 34.9332L30.7044 34.9862L30.7432 35.0392L30.6779 35.0321L30.6514 35.0922L30.6249 35.0321L30.5596 35.0392L30.5984 34.9862L30.5596 34.9332L30.6249 34.9403L30.6514 34.8802Z" fill="#232323" stroke="#232323" stroke-width="0.8"/>
<path fill-rule="evenodd" clip-rule="evenodd" d="M11.758 39.2405L11.7892 39.3036L11.8588 39.3138L11.8084 39.3629L11.8203 39.4323L11.758 39.3995L11.6957 39.4323L11.7076 39.3629L11.6572 39.3138L11.7269 39.3036L11.758 39.2405Z" fill="#232323" stroke="#232323" stroke-width="0.8"/>
<path fill-rule="evenodd" clip-rule="evenodd" d="M10.3042 43.6006L10.3307 43.6607L10.396 43.6536L10.3572 43.7066L10.396 43.7596L10.3307 43.7525L10.3042 43.8125L10.2777 43.7525L10.2124 43.7596L10.2512 43.7066L10.2124 43.6536L10.2777 43.6607L10.3042 43.6006Z" fill="#232323" stroke="#232323" stroke-width="0.8"/>
<path fill-rule="evenodd" clip-rule="evenodd" d="M29.1984 39.2405L29.2296 39.3036L29.2992 39.3138L29.2488 39.3629L29.2608 39.4323L29.1984 39.3995L29.1361 39.4323L29.1481 39.3629L29.0977 39.3138L29.1673 39.3036L29.1984 39.2405Z" fill="#232323" stroke="#232323" stroke-width="0.8"/>
<path fill-rule="evenodd" clip-rule="evenodd" d="M20.478 39.2405L20.5045 39.3006L20.5698 39.2935L20.531 39.3465L20.5698 39.3995L20.5045 39.3923L20.478 39.4524L20.4515 39.3923L20.3862 39.3995L20.425 39.3465L20.3862 39.2935L20.4515 39.3006L20.478 39.2405Z" fill="#232323" stroke="#232323" stroke-width="0.8"/>
<path fill-rule="evenodd" clip-rule="evenodd" d="M21.9313 34.8802L21.9625 34.9434L22.0322 34.9535L21.9817 35.0027L21.9937 35.0721L21.9314 35.0393L21.8691 35.0721L21.881 35.0027L21.8306 34.9535L21.9002 34.9434L21.9313 34.8802Z" fill="#232323" stroke="#232323" stroke-width="0.8"/>
<path fill-rule="evenodd" clip-rule="evenodd" d="M19.0246 43.6006L19.0558 43.6637L19.1254 43.6739L19.075 43.723L19.0869 43.7924L19.0246 43.7596L18.9623 43.7924L18.9742 43.723L18.9238 43.6739L18.9935 43.6637L19.0246 43.6006Z" fill="#232323" stroke="#232323" stroke-width="0.8"/>
<path fill-rule="evenodd" clip-rule="evenodd" d="M27.7451 43.6006L27.7716 43.6607L27.8369 43.6536L27.7981 43.7066L27.8369 43.7596L27.7716 43.7525L27.7451 43.8125L27.7186 43.7525L27.6533 43.7596L27.6921 43.7066L27.6533 43.6536L27.7186 43.6607L27.7451 43.6006Z" fill="#232323" stroke="#232323" stroke-width="0.8"/>
<path fill-rule="evenodd" clip-rule="evenodd" d="M17.004 37.0604L17.0414 37.129L17.11 37.1664L17.0414 37.2039L17.004 37.2724L16.9665 37.2039L16.8979 37.1664L16.9665 37.129L17.004 37.0604Z" fill="#232323" stroke="#E6E6E6" stroke-width="0.8"/>
<path fill-rule="evenodd" clip-rule="evenodd" d="M25.8257 37.3116L25.8632 37.3802L25.9317 37.4177L25.8632 37.4551L25.8257 37.5237L25.7883 37.4551L25.7197 37.4177L25.7883 37.3802L25.8257 37.3116Z" fill="#232323" stroke="#E6E6E6" stroke-width="0.8"/>
<path fill-rule="evenodd" clip-rule="evenodd" d="M15.2252 41.976L15.2626 42.0445L15.3312 42.082L15.2626 42.1194L15.2252 42.188L15.1877 42.1194L15.1191 42.082L15.1877 42.0445L15.2252 41.976Z" fill="#232323" stroke="#E6E6E6" stroke-width="0.8"/>
<path fill-rule="evenodd" clip-rule="evenodd" d="M23.918 41.976L23.9555 42.0445L24.024 42.082L23.9555 42.1194L23.918 42.188L23.8805 42.1194L23.812 42.082L23.8805 42.0445L23.918 41.976Z" fill="#232323" stroke="#E6E6E6" stroke-width="0.8"/>
</svg>
