<svg width="44" height="54" viewBox="0 0 44 54" fill="none" xmlns="http://www.w3.org/2000/svg">
<path fill-rule="evenodd" clip-rule="evenodd" d="M9.75386 35.8689L7.03632 40.5678L4.31878 45.2668L5.36545 39.9405L6.41211 34.6141L8.08299 35.2415L9.75386 35.8689Z" fill="#FFD42A"/>
<path d="M9.78457 35.8135L5.60596 33.401L4.55048 35.2291L8.72909 37.6417L9.78457 35.8135Z" fill="#FFD42A"/>
<path d="M10.1333 29.7817L8.30518 28.7262L5.59109 33.4271L7.41923 34.4826L10.1333 29.7817Z" fill="#FFD42A"/>
<path fill-rule="evenodd" clip-rule="evenodd" d="M25.6264 36.9289L22.9089 41.6279L20.1913 46.3268L21.238 41.0005L22.2847 35.6742L23.9555 36.3016L25.6264 36.9289Z" fill="#FFD42A"/>
<path d="M25.6571 36.8736L21.4785 34.4611L20.423 36.2892L24.6016 38.7017L25.6571 36.8736Z" fill="#FFD42A"/>
<path d="M26.0059 30.8419L24.1777 29.7864L21.4636 34.4873L23.2918 35.5428L26.0059 30.8419Z" fill="#FFD42A"/>
<path fill-rule="evenodd" clip-rule="evenodd" d="M18.5613 0.93335C22.6534 0.93335 26.1602 3.25013 28.0246 6.58911C29.0742 5.80303 30.4147 5.29434 31.8859 5.29434C35.2293 5.29434 37.9429 7.73648 37.9429 10.7456C37.9429 11.4213 37.8145 12.056 37.5644 12.6535C41.3671 14.182 43.9999 17.6446 43.9999 21.648C43.9999 27.084 39.1373 31.4602 33.0972 31.4602H11.2928C5.25274 31.4602 0.390137 27.084 0.390137 21.648C0.390137 17.3415 3.46227 13.7089 7.73369 12.3809C7.73369 12.1958 7.65856 12.0245 7.65856 11.836C7.65856 5.81779 12.543 0.93335 18.5613 0.93335Z" fill="#808080"/>
<path fill-rule="evenodd" clip-rule="evenodd" d="M20.394 32.846L14.9589 42.2439L9.52379 51.6418L11.6171 40.9892L13.7104 30.3365L17.0522 31.5913L20.394 32.846Z" fill="#FFD42A"/>
<path d="M20.4559 32.7356L12.0986 27.9105L9.98767 31.5668L18.3449 36.3919L20.4559 32.7356Z" fill="#FFD42A"/>
<path d="M21.1529 20.6717L17.4966 18.5608L12.0684 27.9627L15.7247 30.0736L21.1529 20.6717Z" fill="#FFD42A"/>
<path fill-rule="evenodd" clip-rule="evenodd" d="M17.8341 34.3676C17.8341 35.1704 17.1832 35.8213 16.3804 35.8213C15.5776 35.8213 14.9268 35.1704 14.9268 34.3676C14.9268 33.5648 15.5776 32.9139 16.3804 32.9139C17.1832 32.9139 17.8341 33.5648 17.8341 34.3676Z" fill="#232323"/>
<path fill-rule="evenodd" clip-rule="evenodd" d="M26.5562 34.3676C26.5562 35.1704 25.9054 35.8213 25.1026 35.8213C24.2997 35.8213 23.6489 35.1704 23.6489 34.3676C23.6489 33.5648 24.2997 32.9139 25.1026 32.9139C25.9054 32.9139 26.5562 33.5648 26.5562 34.3676Z" fill="#232323"/>
<path fill-rule="evenodd" clip-rule="evenodd" d="M35.2779 34.3676C35.2779 35.1704 34.6271 35.8213 33.8243 35.8213C33.0214 35.8213 32.3706 35.1704 32.3706 34.3676C32.3706 33.5648 33.0214 32.9139 33.8243 32.9139C34.6271 32.9139 35.2779 33.5648 35.2779 34.3676Z" fill="#232323"/>
<path fill-rule="evenodd" clip-rule="evenodd" d="M14.9269 40.1822C14.9269 40.985 14.276 41.6358 13.4732 41.6358C12.6704 41.6358 12.0195 40.985 12.0195 40.1822C12.0195 39.3793 12.6704 38.7285 13.4732 38.7285C14.276 38.7285 14.9269 39.3793 14.9269 40.1822Z" fill="#232323"/>
<path fill-rule="evenodd" clip-rule="evenodd" d="M23.6485 40.1822C23.6485 40.985 22.9977 41.6358 22.1949 41.6358C21.392 41.6358 20.7412 40.985 20.7412 40.1822C20.7412 39.3793 21.392 38.7285 22.1949 38.7285C22.9977 38.7285 23.6485 39.3793 23.6485 40.1822Z" fill="#232323"/>
<path fill-rule="evenodd" clip-rule="evenodd" d="M32.3707 40.1822C32.3707 40.985 31.7199 41.6358 30.917 41.6358C30.1142 41.6358 29.4634 40.985 29.4634 40.1822C29.4634 39.3793 30.1142 38.7285 30.917 38.7285C31.7199 38.7285 32.3707 39.3793 32.3707 40.1822Z" fill="#232323"/>
<path fill-rule="evenodd" clip-rule="evenodd" d="M12.0196 45.9969C12.0196 46.7997 11.3688 47.4505 10.566 47.4505C9.76313 47.4505 9.1123 46.7997 9.1123 45.9969C9.1123 45.194 9.76313 44.5432 10.566 44.5432C11.3688 44.5432 12.0196 45.194 12.0196 45.9969Z" fill="#232323"/>
<path fill-rule="evenodd" clip-rule="evenodd" d="M20.7418 45.9969C20.7418 46.7997 20.091 47.4505 19.2881 47.4505C18.4853 47.4505 17.8345 46.7997 17.8345 45.9969C17.8345 45.194 18.4853 44.5432 19.2881 44.5432C20.091 44.5432 20.7418 45.194 20.7418 45.9969Z" fill="#232323"/>
<path fill-rule="evenodd" clip-rule="evenodd" d="M29.4635 45.9969C29.4635 46.7997 28.8126 47.4505 28.0098 47.4505C27.207 47.4505 26.5562 46.7997 26.5562 45.9969C26.5562 45.194 27.207 44.5432 28.0098 44.5432C28.8126 44.5432 29.4635 45.194 29.4635 45.9969Z" fill="#232323"/>
</svg>
