<svg width="44" height="46" viewBox="0 0 44 46" fill="none" xmlns="http://www.w3.org/2000/svg">
<path fill-rule="evenodd" clip-rule="evenodd" d="M18.3338 0.975098C22.4625 0.975098 26.0007 3.31261 27.8817 6.68147C28.9407 5.88835 30.2932 5.37511 31.7775 5.37511C35.1509 5.37511 37.8888 7.8391 37.8888 10.8751C37.8888 11.5569 37.7592 12.1973 37.5069 12.8001C41.3436 14.3423 44 17.8359 44 21.8751C44 27.3597 39.0939 31.7751 32.9998 31.7751H11.0002C4.90611 31.7751 0 27.3597 0 21.8751C0 17.5301 3.09962 13.8649 7.40927 12.5251C7.40927 12.3383 7.33346 12.1655 7.33346 11.9753C7.33346 5.90325 12.2616 0.975098 18.3338 0.975098Z" fill="#232323"/>
<path fill-rule="evenodd" clip-rule="evenodd" d="M13.2114 35.1469L13.2379 35.2069L13.3032 35.1998L13.2644 35.2528L13.3032 35.3058L13.2379 35.2987L13.2114 35.3588L13.1849 35.2987L13.1196 35.3058L13.1584 35.2528L13.1196 35.1998L13.1849 35.2069L13.2114 35.1469Z" fill="#232323" stroke="#232323" stroke-width="0.8"/>
<path fill-rule="evenodd" clip-rule="evenodd" d="M30.6514 35.1469L30.6779 35.2069L30.7432 35.1998L30.7044 35.2528L30.7432 35.3058L30.6779 35.2987L30.6514 35.3588L30.6249 35.2987L30.5596 35.3058L30.5984 35.2528L30.5596 35.1998L30.6249 35.2069L30.6514 35.1469Z" fill="#232323" stroke="#232323" stroke-width="0.8"/>
<path fill-rule="evenodd" clip-rule="evenodd" d="M11.758 39.5071L11.7892 39.5702L11.8588 39.5804L11.8084 39.6295L11.8203 39.6989L11.758 39.6661L11.6957 39.6989L11.7076 39.6295L11.6572 39.5804L11.7269 39.5702L11.758 39.5071Z" fill="#232323" stroke="#232323" stroke-width="0.8"/>
<path fill-rule="evenodd" clip-rule="evenodd" d="M10.3042 43.8672L10.3307 43.9273L10.396 43.9202L10.3572 43.9732L10.396 44.0262L10.3307 44.0191L10.3042 44.0791L10.2777 44.0191L10.2124 44.0262L10.2512 43.9732L10.2124 43.9202L10.2777 43.9273L10.3042 43.8672Z" fill="#232323" stroke="#232323" stroke-width="0.8"/>
<path fill-rule="evenodd" clip-rule="evenodd" d="M29.1984 39.5071L29.2296 39.5702L29.2992 39.5804L29.2488 39.6295L29.2608 39.6989L29.1984 39.6661L29.1361 39.6989L29.1481 39.6295L29.0977 39.5804L29.1673 39.5702L29.1984 39.5071Z" fill="#232323" stroke="#232323" stroke-width="0.8"/>
<path fill-rule="evenodd" clip-rule="evenodd" d="M20.478 39.5071L20.5045 39.5672L20.5698 39.5601L20.531 39.6131L20.5698 39.6661L20.5045 39.6589L20.478 39.719L20.4515 39.6589L20.3862 39.6661L20.425 39.6131L20.3862 39.5601L20.4515 39.5672L20.478 39.5071Z" fill="#232323" stroke="#232323" stroke-width="0.8"/>
<path fill-rule="evenodd" clip-rule="evenodd" d="M21.9313 35.1469L21.9625 35.21L22.0322 35.2201L21.9817 35.2693L21.9937 35.3387L21.9314 35.3059L21.8691 35.3387L21.881 35.2693L21.8306 35.2201L21.9002 35.21L21.9313 35.1469Z" fill="#232323" stroke="#232323" stroke-width="0.8"/>
<path fill-rule="evenodd" clip-rule="evenodd" d="M19.0246 43.8672L19.0558 43.9303L19.1254 43.9405L19.075 43.9896L19.0869 44.059L19.0246 44.0262L18.9623 44.059L18.9742 43.9896L18.9238 43.9405L18.9935 43.9303L19.0246 43.8672Z" fill="#232323" stroke="#232323" stroke-width="0.8"/>
<path fill-rule="evenodd" clip-rule="evenodd" d="M27.7451 43.8672L27.7716 43.9273L27.8369 43.9202L27.7981 43.9732L27.8369 44.0262L27.7716 44.0191L27.7451 44.0791L27.7186 44.0191L27.6533 44.0262L27.6921 43.9732L27.6533 43.9202L27.7186 43.9273L27.7451 43.8672Z" fill="#232323" stroke="#232323" stroke-width="0.8"/>
<path fill-rule="evenodd" clip-rule="evenodd" d="M17.004 37.327L17.0414 37.3956L17.11 37.433L17.0414 37.4705L17.004 37.539L16.9665 37.4705L16.8979 37.433L16.9665 37.3956L17.004 37.327Z" fill="#232323" stroke="#E6E6E6" stroke-width="0.8"/>
<path fill-rule="evenodd" clip-rule="evenodd" d="M25.8257 37.5782L25.8632 37.6468L25.9317 37.6843L25.8632 37.7217L25.8257 37.7903L25.7883 37.7217L25.7197 37.6843L25.7883 37.6468L25.8257 37.5782Z" fill="#232323" stroke="#E6E6E6" stroke-width="0.8"/>
<path fill-rule="evenodd" clip-rule="evenodd" d="M15.2252 42.2426L15.2626 42.3111L15.3312 42.3486L15.2626 42.386L15.2252 42.4546L15.1877 42.386L15.1191 42.3486L15.1877 42.3111L15.2252 42.2426Z" fill="#232323" stroke="#E6E6E6" stroke-width="0.8"/>
<path fill-rule="evenodd" clip-rule="evenodd" d="M23.918 42.2426L23.9555 42.3111L24.024 42.3486L23.9555 42.386L23.918 42.4546L23.8805 42.386L23.812 42.3486L23.8805 42.3111L23.918 42.2426Z" fill="#232323" stroke="#E6E6E6" stroke-width="0.8"/>
</svg>
