<svg width="44" height="55" viewBox="0 0 44 55" fill="none" xmlns="http://www.w3.org/2000/svg">
<path fill-rule="evenodd" clip-rule="evenodd" d="M30.8001 29.5819C30.8001 37.9798 24.2336 44.7877 16.1335 44.7877C8.03329 44.7877 1.4668 37.9798 1.4668 29.5819C1.4668 21.1839 8.03329 14.376 16.1335 14.376C24.2336 14.376 30.8001 21.1839 30.8001 29.5819Z" fill="#FFF696"/>
<path fill-rule="evenodd" clip-rule="evenodd" d="M9.44685 36.0362L6.70499 40.7772L3.96314 45.5182L5.01917 40.1442L6.0752 34.7703L7.76102 35.4032L9.44685 36.0362Z" fill="#FFD42A"/>
<path d="M9.47821 35.9806L5.26221 33.5465L4.19728 35.391L8.41329 37.8251L9.47821 35.9806Z" fill="#FFD42A"/>
<path d="M9.82936 29.8949L7.98486 28.83L5.24649 33.573L7.09099 34.6379L9.82936 29.8949Z" fill="#FFD42A"/>
<path fill-rule="evenodd" clip-rule="evenodd" d="M25.462 37.1058L22.7201 41.8468L19.9783 46.5878L21.0343 41.2138L22.0903 35.8398L23.7762 36.4728L25.462 37.1058Z" fill="#FFD42A"/>
<path d="M25.4933 37.0501L21.2773 34.616L20.2124 36.4605L24.4284 38.8946L25.4933 37.0501Z" fill="#FFD42A"/>
<path d="M25.845 30.9642L24.0005 29.8993L21.2621 34.6423L23.1066 35.7072L25.845 30.9642Z" fill="#FFD42A"/>
<path fill-rule="evenodd" clip-rule="evenodd" d="M18.3338 0.78772C22.4625 0.78772 26.0007 3.12524 27.8817 6.49409C28.9407 5.70098 30.2932 5.18773 31.7775 5.18773C35.1509 5.18773 37.8888 7.65173 37.8888 10.6877C37.8888 11.3695 37.7592 12.0099 37.5069 12.6127C41.3436 14.1549 44 17.6485 44 21.6878C44 27.1724 39.0939 31.5877 32.9998 31.5877H11.0002C4.90611 31.5877 0 27.1724 0 21.6878C0 17.3427 3.09962 13.6776 7.40927 12.3377C7.40927 12.151 7.33346 11.9781 7.33346 11.7879C7.33346 5.71587 12.2616 0.78772 18.3338 0.78772Z" fill="#232323"/>
<path fill-rule="evenodd" clip-rule="evenodd" d="M20.1828 32.9859L14.6991 42.4679L9.21534 51.9499L11.3274 41.2019L13.4395 30.454L16.8111 31.7199L20.1828 32.9859Z" fill="#FFD42A"/>
<path d="M20.2455 32.8746L11.8135 28.0063L9.68363 31.6954L18.1156 36.5636L20.2455 32.8746Z" fill="#FFD42A"/>
<path d="M20.9488 20.7027L17.2598 18.5729L11.783 28.0589L15.472 30.1887L20.9488 20.7027Z" fill="#FFD42A"/>
<path fill-rule="evenodd" clip-rule="evenodd" d="M13.2114 34.9595L13.2379 35.0196L13.3032 35.0124L13.2644 35.0655L13.3032 35.1185L13.2379 35.1113L13.2114 35.1714L13.1849 35.1113L13.1196 35.1185L13.1584 35.0655L13.1196 35.0124L13.1849 35.0196L13.2114 34.9595Z" fill="#232323" stroke="#232323" stroke-width="0.8"/>
<path fill-rule="evenodd" clip-rule="evenodd" d="M30.6514 34.9595L30.6779 35.0196L30.7432 35.0124L30.7044 35.0655L30.7432 35.1185L30.6779 35.1113L30.6514 35.1714L30.6249 35.1113L30.5596 35.1185L30.5984 35.0655L30.5596 35.0124L30.6249 35.0196L30.6514 34.9595Z" fill="#232323" stroke="#232323" stroke-width="0.8"/>
<path fill-rule="evenodd" clip-rule="evenodd" d="M11.758 39.3197L11.7892 39.3828L11.8588 39.393L11.8084 39.4421L11.8203 39.5115L11.758 39.4788L11.6957 39.5115L11.7076 39.4421L11.6572 39.393L11.7269 39.3828L11.758 39.3197Z" fill="#232323" stroke="#232323" stroke-width="0.8"/>
<path fill-rule="evenodd" clip-rule="evenodd" d="M10.3042 43.6798L10.3307 43.7399L10.396 43.7328L10.3572 43.7858L10.396 43.8388L10.3307 43.8317L10.3042 43.8918L10.2777 43.8317L10.2124 43.8388L10.2512 43.7858L10.2124 43.7328L10.2777 43.7399L10.3042 43.6798Z" fill="#232323" stroke="#232323" stroke-width="0.8"/>
<path fill-rule="evenodd" clip-rule="evenodd" d="M29.1984 39.3197L29.2296 39.3828L29.2992 39.393L29.2488 39.4421L29.2608 39.5115L29.1984 39.4788L29.1361 39.5115L29.1481 39.4421L29.0977 39.393L29.1673 39.3828L29.1984 39.3197Z" fill="#232323" stroke="#232323" stroke-width="0.8"/>
<path fill-rule="evenodd" clip-rule="evenodd" d="M20.478 39.3197L20.5045 39.3798L20.5698 39.3727L20.531 39.4257L20.5698 39.4787L20.5045 39.4716L20.478 39.5317L20.4515 39.4716L20.3862 39.4787L20.425 39.4257L20.3862 39.3727L20.4515 39.3798L20.478 39.3197Z" fill="#232323" stroke="#232323" stroke-width="0.8"/>
<path fill-rule="evenodd" clip-rule="evenodd" d="M21.9313 34.9595L21.9625 35.0226L22.0322 35.0328L21.9817 35.0819L21.9937 35.1513L21.9314 35.1185L21.8691 35.1513L21.881 35.0819L21.8306 35.0328L21.9002 35.0226L21.9313 34.9595Z" fill="#232323" stroke="#232323" stroke-width="0.8"/>
<path fill-rule="evenodd" clip-rule="evenodd" d="M19.0246 43.6798L19.0558 43.7429L19.1254 43.7531L19.075 43.8022L19.0869 43.8716L19.0246 43.8389L18.9623 43.8716L18.9742 43.8022L18.9238 43.7531L18.9935 43.7429L19.0246 43.6798Z" fill="#232323" stroke="#232323" stroke-width="0.8"/>
<path fill-rule="evenodd" clip-rule="evenodd" d="M27.7451 43.6798L27.7716 43.7399L27.8369 43.7328L27.7981 43.7858L27.8369 43.8388L27.7716 43.8317L27.7451 43.8918L27.7186 43.8317L27.6533 43.8388L27.6921 43.7858L27.6533 43.7328L27.7186 43.7399L27.7451 43.6798Z" fill="#232323" stroke="#232323" stroke-width="0.8"/>
<path fill-rule="evenodd" clip-rule="evenodd" d="M17.004 37.1396L17.0414 37.2082L17.11 37.2457L17.0414 37.2831L17.004 37.3517L16.9665 37.2831L16.8979 37.2457L16.9665 37.2082L17.004 37.1396Z" fill="#232323" stroke="#E6E6E6" stroke-width="0.8"/>
<path fill-rule="evenodd" clip-rule="evenodd" d="M25.8257 37.3909L25.8632 37.4594L25.9317 37.4969L25.8632 37.5344L25.8257 37.6029L25.7883 37.5344L25.7197 37.4969L25.7883 37.4594L25.8257 37.3909Z" fill="#232323" stroke="#E6E6E6" stroke-width="0.8"/>
<path fill-rule="evenodd" clip-rule="evenodd" d="M15.2252 42.0552L15.2626 42.1237L15.3312 42.1612L15.2626 42.1987L15.2252 42.2672L15.1877 42.1987L15.1191 42.1612L15.1877 42.1237L15.2252 42.0552Z" fill="#232323" stroke="#E6E6E6" stroke-width="0.8"/>
<path fill-rule="evenodd" clip-rule="evenodd" d="M23.918 42.0552L23.9555 42.1237L24.024 42.1612L23.9555 42.1987L23.918 42.2672L23.8805 42.1987L23.812 42.1612L23.8805 42.1237L23.918 42.0552Z" fill="#232323" stroke="#E6E6E6" stroke-width="0.8"/>
</svg>
