<svg width="44" height="54" viewBox="0 0 44 54" fill="none" xmlns="http://www.w3.org/2000/svg">
<path fill-rule="evenodd" clip-rule="evenodd" d="M30.9169 29.2248C30.9169 37.5483 24.4087 44.2959 16.3803 44.2959C8.35201 44.2959 1.84375 37.5483 1.84375 29.2248C1.84375 20.9013 8.35201 14.1538 16.3803 14.1538C24.4087 14.1538 30.9169 20.9013 30.9169 29.2248Z" fill="#CCCCCC"/>
<path fill-rule="evenodd" clip-rule="evenodd" d="M9.75386 35.6216L7.03632 40.3205L4.31878 45.0194L5.36545 39.6931L6.41211 34.3668L8.08299 34.9942L9.75386 35.6216Z" fill="#FFD42A"/>
<path d="M9.78457 35.5662L5.60596 33.1537L4.55048 34.9818L8.72909 37.3944L9.78457 35.5662Z" fill="#FFD42A"/>
<path d="M10.1333 29.5344L8.30518 28.4789L5.59109 33.1798L7.41923 34.2353L10.1333 29.5344Z" fill="#FFD42A"/>
<path fill-rule="evenodd" clip-rule="evenodd" d="M25.6264 36.6816L22.9089 41.3806L20.1913 46.0795L21.238 40.7532L22.2847 35.4269L23.9555 36.0542L25.6264 36.6816Z" fill="#FFD42A"/>
<path d="M25.6571 36.6263L21.4785 34.2137L20.423 36.0419L24.6016 38.4544L25.6571 36.6263Z" fill="#FFD42A"/>
<path d="M26.0059 30.5945L24.1777 29.5391L21.4636 34.24L23.2918 35.2955L26.0059 30.5945Z" fill="#FFD42A"/>
<path fill-rule="evenodd" clip-rule="evenodd" d="M18.5613 0.686035C22.6534 0.686035 26.1602 3.00282 28.0246 6.3418C29.0742 5.55572 30.4147 5.04703 31.8859 5.04703C35.2293 5.04703 37.9429 7.48917 37.9429 10.4982C37.9429 11.174 37.8145 11.8087 37.5644 12.4062C41.3671 13.9347 43.9999 17.3973 43.9999 21.4007C43.9999 26.8367 39.1373 31.2129 33.0972 31.2129H11.2928C5.25274 31.2129 0.390137 26.8367 0.390137 21.4007C0.390137 17.0942 3.46227 13.4616 7.73369 12.1336C7.73369 11.9485 7.65856 11.7771 7.65856 11.5887C7.65856 5.57048 12.543 0.686035 18.5613 0.686035Z" fill="#232323"/>
<path fill-rule="evenodd" clip-rule="evenodd" d="M20.394 32.5987L14.9589 41.9966L9.52379 51.3945L11.6171 40.7419L13.7104 30.0892L17.0522 31.344L20.394 32.5987Z" fill="#FFD42A"/>
<path d="M20.4559 32.4883L12.0986 27.6632L9.98767 31.3195L18.3449 36.1445L20.4559 32.4883Z" fill="#FFD42A"/>
<path d="M21.1529 20.4244L17.4966 18.3135L12.0684 27.7154L15.7247 29.8263L21.1529 20.4244Z" fill="#FFD42A"/>
<path fill-rule="evenodd" clip-rule="evenodd" d="M13.4845 34.5547L13.5108 34.6143L13.5755 34.6072L13.5371 34.6597L13.5755 34.7123L13.5108 34.7052L13.4845 34.7648L13.4583 34.7052L13.3936 34.7123L13.432 34.6597L13.3936 34.6072L13.4583 34.6143L13.4845 34.5547Z" fill="#232323" stroke="#232323" stroke-width="0.8"/>
<path fill-rule="evenodd" clip-rule="evenodd" d="M30.7702 34.5547L30.7964 34.6143L30.8612 34.6072L30.8227 34.6597L30.8612 34.7123L30.7964 34.7052L30.7702 34.7648L30.7439 34.7052L30.6792 34.7123L30.7177 34.6597L30.6792 34.6072L30.7439 34.6143L30.7702 34.5547Z" fill="#232323" stroke="#232323" stroke-width="0.8"/>
<path fill-rule="evenodd" clip-rule="evenodd" d="M12.0437 38.8762L12.0746 38.9388L12.1436 38.9489L12.0937 38.9976L12.1055 39.0663L12.0437 39.0339L11.982 39.0663L11.9938 38.9976L11.9438 38.9489L12.0129 38.9388L12.0437 38.8762Z" fill="#232323" stroke="#232323" stroke-width="0.8"/>
<path fill-rule="evenodd" clip-rule="evenodd" d="M10.6032 43.1978L10.6294 43.2573L10.6942 43.2503L10.6557 43.3028L10.6942 43.3553L10.6294 43.3483L10.6032 43.4078L10.5769 43.3483L10.5122 43.3553L10.5507 43.3028L10.5122 43.2503L10.5769 43.2573L10.6032 43.1978Z" fill="#232323" stroke="#232323" stroke-width="0.8"/>
<path fill-rule="evenodd" clip-rule="evenodd" d="M29.3299 38.8762L29.3607 38.9388L29.4298 38.9489L29.3798 38.9976L29.3916 39.0663L29.3299 39.0339L29.2681 39.0663L29.2799 38.9976L29.23 38.9489L29.299 38.9388L29.3299 38.8762Z" fill="#232323" stroke="#232323" stroke-width="0.8"/>
<path fill-rule="evenodd" clip-rule="evenodd" d="M20.6867 38.8762L20.7129 38.9358L20.7777 38.9287L20.7392 38.9813L20.7777 39.0338L20.7129 39.0267L20.6867 39.0863L20.6604 39.0267L20.5957 39.0338L20.6342 38.9813L20.5957 38.9287L20.6604 38.9358L20.6867 38.8762Z" fill="#232323" stroke="#232323" stroke-width="0.8"/>
<path fill-rule="evenodd" clip-rule="evenodd" d="M22.1272 34.5547L22.1581 34.6172L22.2271 34.6273L22.1772 34.676L22.189 34.7448L22.1272 34.7123L22.0655 34.7448L22.0773 34.676L22.0273 34.6273L22.0964 34.6172L22.1272 34.5547Z" fill="#232323" stroke="#232323" stroke-width="0.8"/>
<path fill-rule="evenodd" clip-rule="evenodd" d="M19.2459 43.1978L19.2768 43.2603L19.3458 43.2704L19.2958 43.3191L19.3076 43.3879L19.2459 43.3554L19.1841 43.3879L19.196 43.3191L19.146 43.2704L19.215 43.2603L19.2459 43.1978Z" fill="#232323" stroke="#232323" stroke-width="0.8"/>
<path fill-rule="evenodd" clip-rule="evenodd" d="M27.8888 43.1978L27.9151 43.2573L27.9798 43.2503L27.9414 43.3028L27.9798 43.3553L27.9151 43.3483L27.8888 43.4078L27.8626 43.3483L27.7979 43.3553L27.8363 43.3028L27.7979 43.2503L27.8626 43.2573L27.8888 43.1978Z" fill="#232323" stroke="#232323" stroke-width="0.8"/>
<path fill-rule="evenodd" clip-rule="evenodd" d="M17.2433 36.7156L17.2804 36.7835L17.3483 36.8206L17.2804 36.8578L17.2433 36.9257L17.2061 36.8578L17.1382 36.8206L17.2061 36.7835L17.2433 36.7156Z" fill="#232323" stroke="#E6E6E6" stroke-width="0.8"/>
<path fill-rule="evenodd" clip-rule="evenodd" d="M25.9869 36.9646L26.0241 37.0325L26.092 37.0697L26.0241 37.1068L25.9869 37.1747L25.9498 37.1068L25.8818 37.0697L25.9498 37.0325L25.9869 36.9646Z" fill="#232323" stroke="#E6E6E6" stroke-width="0.8"/>
<path fill-rule="evenodd" clip-rule="evenodd" d="M15.4806 41.5875L15.5177 41.6554L15.5856 41.6926L15.5177 41.7297L15.4806 41.7977L15.4434 41.7297L15.3755 41.6926L15.4434 41.6554L15.4806 41.5875Z" fill="#232323" stroke="#E6E6E6" stroke-width="0.8"/>
<path fill-rule="evenodd" clip-rule="evenodd" d="M24.0958 41.5875L24.1329 41.6554L24.2009 41.6926L24.1329 41.7297L24.0958 41.7977L24.0586 41.7297L23.9907 41.6926L24.0586 41.6554L24.0958 41.5875Z" fill="#232323" stroke="#E6E6E6" stroke-width="0.8"/>
</svg>
