<svg width="44" height="53" viewBox="0 0 44 53" fill="none" xmlns="http://www.w3.org/2000/svg">
<path fill-rule="evenodd" clip-rule="evenodd" d="M24.9263 36.3091L22.283 40.8797L19.6396 45.4504L20.6577 40.2695L21.6758 35.0886L23.301 35.6989L24.9263 36.3091Z" fill="#FFD42A"/>
<path d="M24.9571 36.2556L20.8926 33.9089L19.8659 35.6872L23.9304 38.0338L24.9571 36.2556Z" fill="#FFD42A"/>
<path d="M25.2958 30.3884L23.5176 29.3617L20.8776 33.9343L22.6558 34.9609L25.2958 30.3884Z" fill="#FFD42A"/>
<path fill-rule="evenodd" clip-rule="evenodd" d="M9.48684 35.2781L6.8435 39.8487L4.20016 44.4194L5.21824 39.2385L6.23633 34.0576L7.86158 34.6679L9.48684 35.2781Z" fill="#FFD42A"/>
<path d="M9.51715 35.2245L5.45264 32.8778L4.42598 34.656L8.49049 37.0027L9.51715 35.2245Z" fill="#FFD42A"/>
<path d="M9.85635 29.3572L8.07812 28.3306L5.43814 32.9031L7.21637 33.9298L9.85635 29.3572Z" fill="#FFD42A"/>
<path fill-rule="evenodd" clip-rule="evenodd" d="M19.0299 0.908447C23.0467 0.908447 26.4889 3.18257 28.3189 6.46005C29.3491 5.68845 30.665 5.18912 32.109 5.18912C35.3909 5.18912 38.0545 7.58629 38.0545 10.54C38.0545 11.2033 37.9285 11.8263 37.683 12.4127C41.4156 13.9131 44 17.312 44 21.2417C44 26.5775 39.227 30.8731 33.2981 30.8731H11.8953C5.96641 30.8731 1.19336 26.5775 1.19336 21.2417C1.19336 17.0145 4.20891 13.4487 8.40167 12.1452C8.40167 11.9635 8.32792 11.7953 8.32792 11.6103C8.32792 5.70294 13.1224 0.908447 19.0299 0.908447Z" fill="#232323"/>
<path fill-rule="evenodd" clip-rule="evenodd" d="M19.8374 32.3379L14.5508 41.4792L9.26409 50.6205L11.3003 40.2587L13.3364 29.897L16.5869 31.1174L19.8374 32.3379Z" fill="#FFD42A"/>
<path d="M19.8976 32.2304L11.7686 27.5371L9.71524 31.0936L17.8443 35.7869L19.8976 32.2304Z" fill="#FFD42A"/>
<path d="M20.5755 20.4961L17.019 18.4427L11.7391 27.5879L15.2955 29.6412L20.5755 20.4961Z" fill="#FFD42A"/>
<path fill-rule="evenodd" clip-rule="evenodd" d="M18.3162 33.7269C18.3162 34.515 17.6773 35.1538 16.8893 35.1538C16.1012 35.1538 15.4624 34.515 15.4624 33.7269C15.4624 32.9389 16.1012 32.3 16.8893 32.3C17.6773 32.3 18.3162 32.9389 18.3162 33.7269Z" fill="#232323"/>
<path fill-rule="evenodd" clip-rule="evenodd" d="M26.8772 33.7269C26.8772 34.515 26.2384 35.1538 25.4503 35.1538C24.6623 35.1538 24.0234 34.515 24.0234 33.7269C24.0234 32.9389 24.6623 32.3 25.4503 32.3C26.2384 32.3 26.8772 32.9389 26.8772 33.7269Z" fill="#F2F2F2"/>
<path fill-rule="evenodd" clip-rule="evenodd" d="M35.4387 33.7269C35.4387 34.515 34.7999 35.1538 34.0118 35.1538C33.2238 35.1538 32.585 34.515 32.585 33.7269C32.585 32.9389 33.2238 32.3 34.0118 32.3C34.7999 32.3 35.4387 32.9389 35.4387 33.7269Z" fill="#232323"/>
<path fill-rule="evenodd" clip-rule="evenodd" d="M15.4622 39.4345C15.4622 40.2225 14.8233 40.8613 14.0353 40.8613C13.2472 40.8613 12.6084 40.2225 12.6084 39.4345C12.6084 38.6464 13.2472 38.0076 14.0353 38.0076C14.8233 38.0076 15.4622 38.6464 15.4622 39.4345Z" fill="#F2F2F2"/>
<path fill-rule="evenodd" clip-rule="evenodd" d="M24.0237 39.4345C24.0237 40.2225 23.3849 40.8613 22.5968 40.8613C21.8088 40.8613 21.1699 40.2225 21.1699 39.4345C21.1699 38.6464 21.8088 38.0076 22.5968 38.0076C23.3849 38.0076 24.0237 38.6464 24.0237 39.4345Z" fill="#232323"/>
<path fill-rule="evenodd" clip-rule="evenodd" d="M32.5847 39.4345C32.5847 40.2225 31.9459 40.8613 31.1578 40.8613C30.3698 40.8613 29.731 40.2225 29.731 39.4345C29.731 38.6464 30.3698 38.0076 31.1578 38.0076C31.9459 38.0076 32.5847 38.6464 32.5847 39.4345Z" fill="#F2F2F2"/>
<path fill-rule="evenodd" clip-rule="evenodd" d="M12.6087 45.1421C12.6087 45.9301 11.9698 46.569 11.1818 46.569C10.3937 46.569 9.75488 45.9301 9.75488 45.1421C9.75488 44.354 10.3937 43.7152 11.1818 43.7152C11.9698 43.7152 12.6087 44.354 12.6087 45.1421Z" fill="#232323"/>
<path fill-rule="evenodd" clip-rule="evenodd" d="M21.1697 45.1421C21.1697 45.9301 20.5309 46.569 19.7428 46.569C18.9548 46.569 18.3159 45.9301 18.3159 45.1421C18.3159 44.354 18.9548 43.7152 19.7428 43.7152C20.5309 43.7152 21.1697 44.354 21.1697 45.1421Z" fill="#F2F2F2"/>
<path fill-rule="evenodd" clip-rule="evenodd" d="M29.7312 45.1421C29.7312 45.9301 29.0924 46.569 28.3043 46.569C27.5163 46.569 26.8774 45.9301 26.8774 45.1421C26.8774 44.354 27.5163 43.7152 28.3043 43.7152C29.0924 43.7152 29.7312 44.354 29.7312 45.1421Z" fill="#232323"/>
</svg>
