<svg width="44" height="54" viewBox="0 0 44 54" fill="none" xmlns="http://www.w3.org/2000/svg">
<path fill-rule="evenodd" clip-rule="evenodd" d="M9.75386 35.8205L7.03632 40.5195L4.31878 45.2184L5.36545 39.8921L6.41211 34.5658L8.08299 35.1932L9.75386 35.8205Z" fill="#FFD42A"/>
<path d="M9.78457 35.7652L5.60596 33.3527L4.55048 35.1808L8.72909 37.5933L9.78457 35.7652Z" fill="#FFD42A"/>
<path d="M10.1333 29.7333L8.30518 28.6779L5.59109 33.3788L7.41923 34.4343L10.1333 29.7333Z" fill="#FFD42A"/>
<path fill-rule="evenodd" clip-rule="evenodd" d="M25.6264 36.8806L22.9089 41.5795L20.1913 46.2785L21.238 40.9522L22.2847 35.6259L23.9555 36.2532L25.6264 36.8806Z" fill="#FFD42A"/>
<path d="M25.6571 36.8252L21.4785 34.4127L20.423 36.2409L24.6016 38.6534L25.6571 36.8252Z" fill="#FFD42A"/>
<path d="M26.0059 30.7935L24.1777 29.738L21.4636 34.439L23.2918 35.4945L26.0059 30.7935Z" fill="#FFD42A"/>
<path fill-rule="evenodd" clip-rule="evenodd" d="M18.5613 0.88501C22.6534 0.88501 26.1602 3.20179 28.0246 6.54077C29.0742 5.75469 30.4147 5.246 31.8859 5.246C35.2293 5.246 37.9429 7.68814 37.9429 10.6972C37.9429 11.373 37.8145 12.0077 37.5644 12.6051C41.3671 14.1337 43.9999 17.5963 43.9999 21.5997C43.9999 27.0357 39.1373 31.4119 33.0972 31.4119H11.2928C5.25274 31.4119 0.390137 27.0357 0.390137 21.5997C0.390137 17.2932 3.46227 13.6605 7.73369 12.3326C7.73369 12.1475 7.65856 11.9761 7.65856 11.7877C7.65856 5.76945 12.543 0.88501 18.5613 0.88501Z" fill="#232323"/>
<path fill-rule="evenodd" clip-rule="evenodd" d="M20.394 32.7977L14.9589 42.1956L9.52379 51.5935L11.6171 40.9408L13.7104 30.2882L17.0522 31.5429L20.394 32.7977Z" fill="#FFD42A"/>
<path d="M20.4559 32.6872L12.0986 27.8622L9.98767 31.5185L18.3449 36.3435L20.4559 32.6872Z" fill="#FFD42A"/>
<path d="M21.1529 20.6234L17.4966 18.5125L12.0684 27.9143L15.7247 30.0253L21.1529 20.6234Z" fill="#FFD42A"/>
<path fill-rule="evenodd" clip-rule="evenodd" d="M13.4845 34.7537L13.5108 34.8132L13.5755 34.8062L13.5371 34.8587L13.5755 34.9112L13.5108 34.9042L13.4845 34.9637L13.4583 34.9042L13.3936 34.9112L13.432 34.8587L13.3936 34.8062L13.4583 34.8132L13.4845 34.7537Z" fill="#232323" stroke="#232323" stroke-width="0.8"/>
<path fill-rule="evenodd" clip-rule="evenodd" d="M30.7702 34.7537L30.7964 34.8132L30.8612 34.8062L30.8227 34.8587L30.8612 34.9112L30.7964 34.9042L30.7702 34.9637L30.7439 34.9042L30.6792 34.9112L30.7177 34.8587L30.6792 34.8062L30.7439 34.8132L30.7702 34.7537Z" fill="#232323" stroke="#232323" stroke-width="0.8"/>
<path fill-rule="evenodd" clip-rule="evenodd" d="M12.0437 39.0752L12.0746 39.1378L12.1436 39.1478L12.0937 39.1965L12.1055 39.2653L12.0437 39.2328L11.982 39.2653L11.9938 39.1965L11.9438 39.1478L12.0129 39.1378L12.0437 39.0752Z" fill="#232323" stroke="#232323" stroke-width="0.8"/>
<path fill-rule="evenodd" clip-rule="evenodd" d="M10.6032 43.3967L10.6294 43.4563L10.6942 43.4492L10.6557 43.5018L10.6942 43.5543L10.6294 43.5472L10.6032 43.6068L10.5769 43.5472L10.5122 43.5543L10.5507 43.5018L10.5122 43.4492L10.5769 43.4563L10.6032 43.3967Z" fill="#232323" stroke="#232323" stroke-width="0.8"/>
<path fill-rule="evenodd" clip-rule="evenodd" d="M29.3299 39.0752L29.3607 39.1378L29.4298 39.1478L29.3798 39.1965L29.3916 39.2653L29.3299 39.2328L29.2681 39.2653L29.2799 39.1965L29.23 39.1478L29.299 39.1378L29.3299 39.0752Z" fill="#232323" stroke="#232323" stroke-width="0.8"/>
<path fill-rule="evenodd" clip-rule="evenodd" d="M20.6867 39.0752L20.7129 39.1348L20.7777 39.1277L20.7392 39.1802L20.7777 39.2328L20.7129 39.2257L20.6867 39.2853L20.6604 39.2257L20.5957 39.2328L20.6342 39.1802L20.5957 39.1277L20.6604 39.1348L20.6867 39.0752Z" fill="#232323" stroke="#232323" stroke-width="0.8"/>
<path fill-rule="evenodd" clip-rule="evenodd" d="M22.1272 34.7537L22.1581 34.8162L22.2271 34.8263L22.1772 34.875L22.189 34.9438L22.1272 34.9113L22.0655 34.9438L22.0773 34.875L22.0273 34.8263L22.0964 34.8162L22.1272 34.7537Z" fill="#232323" stroke="#232323" stroke-width="0.8"/>
<path fill-rule="evenodd" clip-rule="evenodd" d="M19.2459 43.3967L19.2768 43.4593L19.3458 43.4694L19.2958 43.5181L19.3076 43.5868L19.2459 43.5544L19.1841 43.5868L19.196 43.5181L19.146 43.4694L19.215 43.4593L19.2459 43.3967Z" fill="#232323" stroke="#232323" stroke-width="0.8"/>
<path fill-rule="evenodd" clip-rule="evenodd" d="M27.8888 43.3967L27.9151 43.4563L27.9798 43.4492L27.9414 43.5018L27.9798 43.5543L27.9151 43.5472L27.8888 43.6068L27.8626 43.5472L27.7979 43.5543L27.8363 43.5018L27.7979 43.4492L27.8626 43.4563L27.8888 43.3967Z" fill="#232323" stroke="#232323" stroke-width="0.8"/>
<path fill-rule="evenodd" clip-rule="evenodd" d="M17.2433 36.9146L17.2804 36.9825L17.3483 37.0196L17.2804 37.0568L17.2433 37.1247L17.2061 37.0568L17.1382 37.0196L17.2061 36.9825L17.2433 36.9146Z" fill="#232323" stroke="#E6E6E6" stroke-width="0.8"/>
<path fill-rule="evenodd" clip-rule="evenodd" d="M25.9869 37.1636L26.0241 37.2315L26.092 37.2686L26.0241 37.3058L25.9869 37.3737L25.9498 37.3058L25.8818 37.2686L25.9498 37.2315L25.9869 37.1636Z" fill="#232323" stroke="#E6E6E6" stroke-width="0.8"/>
<path fill-rule="evenodd" clip-rule="evenodd" d="M15.4806 41.7865L15.5177 41.8544L15.5856 41.8916L15.5177 41.9287L15.4806 41.9966L15.4434 41.9287L15.3755 41.8916L15.4434 41.8544L15.4806 41.7865Z" fill="#232323" stroke="#E6E6E6" stroke-width="0.8"/>
<path fill-rule="evenodd" clip-rule="evenodd" d="M24.0958 41.7865L24.1329 41.8544L24.2009 41.8916L24.1329 41.9287L24.0958 41.9966L24.0586 41.9287L23.9907 41.8916L24.0586 41.8544L24.0958 41.7865Z" fill="#232323" stroke="#E6E6E6" stroke-width="0.8"/>
</svg>
