<svg width="44" height="54" viewBox="0 0 44 54" fill="none" xmlns="http://www.w3.org/2000/svg">
<path fill-rule="evenodd" clip-rule="evenodd" d="M9.75386 35.8022L7.03632 40.5012L4.31878 45.2001L5.36545 39.8738L6.41211 34.5475L8.08299 35.1749L9.75386 35.8022Z" fill="#FFD42A"/>
<path d="M9.78457 35.7469L5.60596 33.3344L4.55048 35.1625L8.72909 37.575L9.78457 35.7469Z" fill="#FFD42A"/>
<path d="M10.1333 29.715L8.30518 28.6595L5.59109 33.3605L7.41923 34.416L10.1333 29.715Z" fill="#FFD42A"/>
<path fill-rule="evenodd" clip-rule="evenodd" d="M25.6264 36.8623L22.9089 41.5612L20.1913 46.2602L21.238 40.9339L22.2847 35.6075L23.9555 36.2349L25.6264 36.8623Z" fill="#FFD42A"/>
<path d="M25.6571 36.8069L21.4785 34.3944L20.423 36.2226L24.6016 38.6351L25.6571 36.8069Z" fill="#FFD42A"/>
<path d="M26.0059 30.7752L24.1777 29.7197L21.4636 34.4207L23.2918 35.4761L26.0059 30.7752Z" fill="#FFD42A"/>
<path fill-rule="evenodd" clip-rule="evenodd" d="M18.5613 0.866699C22.6534 0.866699 26.1602 3.18348 28.0246 6.52246C29.0742 5.73638 30.4147 5.22769 31.8859 5.22769C35.2293 5.22769 37.9429 7.66983 37.9429 10.6789C37.9429 11.3547 37.8145 11.9894 37.5644 12.5868C41.3671 14.1154 43.9999 17.578 43.9999 21.5814C43.9999 27.0174 39.1373 31.3935 33.0972 31.3935H11.2928C5.25274 31.3935 0.390137 27.0174 0.390137 21.5814C0.390137 17.2749 3.46227 13.6422 7.73369 12.3143C7.73369 12.1292 7.65856 11.9578 7.65856 11.7694C7.65856 5.75114 12.543 0.866699 18.5613 0.866699Z" fill="#808080"/>
<path fill-rule="evenodd" clip-rule="evenodd" d="M20.394 32.7794L14.9589 42.1773L9.52379 51.5752L11.6171 40.9225L13.7104 30.2699L17.0522 31.5246L20.394 32.7794Z" fill="#FFD42A"/>
<path d="M20.4559 32.6689L12.0986 27.8439L9.98767 31.5002L18.3449 36.3252L20.4559 32.6689Z" fill="#FFD42A"/>
<path d="M21.1529 20.6051L17.4966 18.4941L12.0684 27.896L15.7247 30.007L21.1529 20.6051Z" fill="#FFD42A"/>
<path fill-rule="evenodd" clip-rule="evenodd" d="M17.8341 34.3009C17.8341 35.1038 17.1832 35.7546 16.3804 35.7546C15.5776 35.7546 14.9268 35.1038 14.9268 34.3009C14.9268 33.4981 15.5776 32.8473 16.3804 32.8473C17.1832 32.8473 17.8341 33.4981 17.8341 34.3009Z" fill="#232323"/>
<path fill-rule="evenodd" clip-rule="evenodd" d="M26.5562 34.3009C26.5562 35.1038 25.9054 35.7546 25.1026 35.7546C24.2997 35.7546 23.6489 35.1038 23.6489 34.3009C23.6489 33.4981 24.2997 32.8473 25.1026 32.8473C25.9054 32.8473 26.5562 33.4981 26.5562 34.3009Z" fill="#F2F2F2"/>
<path fill-rule="evenodd" clip-rule="evenodd" d="M35.2779 34.3009C35.2779 35.1038 34.6271 35.7546 33.8243 35.7546C33.0214 35.7546 32.3706 35.1038 32.3706 34.3009C32.3706 33.4981 33.0214 32.8473 33.8243 32.8473C34.6271 32.8473 35.2779 33.4981 35.2779 34.3009Z" fill="#232323"/>
<path fill-rule="evenodd" clip-rule="evenodd" d="M14.9269 40.1155C14.9269 40.9184 14.276 41.5692 13.4732 41.5692C12.6704 41.5692 12.0195 40.9184 12.0195 40.1155C12.0195 39.3127 12.6704 38.6619 13.4732 38.6619C14.276 38.6619 14.9269 39.3127 14.9269 40.1155Z" fill="#F2F2F2"/>
<path fill-rule="evenodd" clip-rule="evenodd" d="M23.6485 40.1155C23.6485 40.9184 22.9977 41.5692 22.1949 41.5692C21.392 41.5692 20.7412 40.9184 20.7412 40.1155C20.7412 39.3127 21.392 38.6619 22.1949 38.6619C22.9977 38.6619 23.6485 39.3127 23.6485 40.1155Z" fill="#232323"/>
<path fill-rule="evenodd" clip-rule="evenodd" d="M32.3707 40.1155C32.3707 40.9184 31.7199 41.5692 30.917 41.5692C30.1142 41.5692 29.4634 40.9184 29.4634 40.1155C29.4634 39.3127 30.1142 38.6619 30.917 38.6619C31.7199 38.6619 32.3707 39.3127 32.3707 40.1155Z" fill="#F2F2F2"/>
<path fill-rule="evenodd" clip-rule="evenodd" d="M12.0196 45.9302C12.0196 46.7331 11.3688 47.3839 10.566 47.3839C9.76313 47.3839 9.1123 46.7331 9.1123 45.9302C9.1123 45.1274 9.76313 44.4766 10.566 44.4766C11.3688 44.4766 12.0196 45.1274 12.0196 45.9302Z" fill="#232323"/>
<path fill-rule="evenodd" clip-rule="evenodd" d="M20.7418 45.9302C20.7418 46.7331 20.091 47.3839 19.2881 47.3839C18.4853 47.3839 17.8345 46.7331 17.8345 45.9302C17.8345 45.1274 18.4853 44.4766 19.2881 44.4766C20.091 44.4766 20.7418 45.1274 20.7418 45.9302Z" fill="#F2F2F2"/>
<path fill-rule="evenodd" clip-rule="evenodd" d="M29.4635 45.9302C29.4635 46.7331 28.8126 47.3839 28.0098 47.3839C27.207 47.3839 26.5562 46.7331 26.5562 45.9302C26.5562 45.1274 27.207 44.4766 28.0098 44.4766C28.8126 44.4766 29.4635 45.1274 29.4635 45.9302Z" fill="#232323"/>
</svg>
