<svg width="44" height="53" viewBox="0 0 44 53" fill="none" xmlns="http://www.w3.org/2000/svg">
<path fill-rule="evenodd" clip-rule="evenodd" d="M30.8231 28.5076C30.8231 36.7557 24.3738 43.4421 16.4181 43.4421C8.46251 43.4421 2.01318 36.7557 2.01318 28.5076C2.01318 20.2594 8.46251 13.573 16.4181 13.573C24.3738 13.573 30.8231 20.2594 30.8231 28.5076Z" fill="#CCCCCC"/>
<path fill-rule="evenodd" clip-rule="evenodd" d="M9.75386 34.9356L7.03632 39.6346L4.31878 44.3335L5.36545 39.0072L6.41211 33.6809L8.08299 34.3083L9.75386 34.9356Z" fill="#FFD42A"/>
<path d="M9.78457 34.8803L5.60596 32.4678L4.55048 34.2959L8.72909 36.7084L9.78457 34.8803Z" fill="#FFD42A"/>
<path d="M10.1333 28.8484L8.30518 27.793L5.59109 32.4939L7.41923 33.5494L10.1333 28.8484Z" fill="#FFD42A"/>
<path fill-rule="evenodd" clip-rule="evenodd" d="M25.6264 35.9957L22.9089 40.6946L20.1913 45.3936L21.238 40.0673L22.2847 34.741L23.9555 35.3683L25.6264 35.9957Z" fill="#FFD42A"/>
<path d="M25.6571 35.9404L21.4785 33.5278L20.423 35.356L24.6016 37.7685L25.6571 35.9404Z" fill="#FFD42A"/>
<path d="M26.0059 29.9085L24.1777 28.853L21.4636 33.554L23.2918 34.6094L26.0059 29.9085Z" fill="#FFD42A"/>
<path fill-rule="evenodd" clip-rule="evenodd" d="M18.5613 0C22.6534 0 26.1602 2.31679 28.0246 5.65576C29.0742 4.86968 30.4147 4.36099 31.8859 4.36099C35.2293 4.36099 37.9429 6.80313 37.9429 9.81221C37.9429 10.488 37.8145 11.1227 37.5644 11.7201C41.3671 13.2487 43.9999 16.7113 43.9999 20.7147C43.9999 26.1507 39.1373 30.5268 33.0972 30.5268H11.2928C5.25274 30.5268 0.390137 26.1507 0.390137 20.7147C0.390137 16.4082 3.46227 12.7755 7.73369 11.4476C7.73369 11.2625 7.65856 11.0911 7.65856 10.9027C7.65856 4.88444 12.543 0 18.5613 0Z" fill="#232323"/>
<path fill-rule="evenodd" clip-rule="evenodd" d="M20.394 31.9125L14.9589 41.3104L9.52379 50.7083L11.6171 40.0557L13.7104 29.4031L17.0522 30.6578L20.394 31.9125Z" fill="#FFD42A"/>
<path d="M20.4559 31.8023L12.0986 26.9773L9.98767 30.6336L18.3449 35.4586L20.4559 31.8023Z" fill="#FFD42A"/>
<path d="M21.1529 19.7384L17.4966 17.6274L12.0684 27.0293L15.7247 29.1403L21.1529 19.7384Z" fill="#FFD42A"/>
<path fill-rule="evenodd" clip-rule="evenodd" d="M17.8341 33.4341C17.8341 34.237 17.1832 34.8878 16.3804 34.8878C15.5776 34.8878 14.9268 34.237 14.9268 33.4341C14.9268 32.6313 15.5776 31.9805 16.3804 31.9805C17.1832 31.9805 17.8341 32.6313 17.8341 33.4341Z" fill="#232323"/>
<path fill-rule="evenodd" clip-rule="evenodd" d="M26.5562 33.4341C26.5562 34.237 25.9054 34.8878 25.1026 34.8878C24.2997 34.8878 23.6489 34.237 23.6489 33.4341C23.6489 32.6313 24.2997 31.9805 25.1026 31.9805C25.9054 31.9805 26.5562 32.6313 26.5562 33.4341Z" fill="#F2F2F2"/>
<path fill-rule="evenodd" clip-rule="evenodd" d="M35.2779 33.4341C35.2779 34.237 34.6271 34.8878 33.8243 34.8878C33.0214 34.8878 32.3706 34.237 32.3706 33.4341C32.3706 32.6313 33.0214 31.9805 33.8243 31.9805C34.6271 31.9805 35.2779 32.6313 35.2779 33.4341Z" fill="#232323"/>
<path fill-rule="evenodd" clip-rule="evenodd" d="M14.9269 39.2488C14.9269 40.0517 14.276 40.7025 13.4732 40.7025C12.6704 40.7025 12.0195 40.0517 12.0195 39.2488C12.0195 38.446 12.6704 37.7952 13.4732 37.7952C14.276 37.7952 14.9269 38.446 14.9269 39.2488Z" fill="#F2F2F2"/>
<path fill-rule="evenodd" clip-rule="evenodd" d="M23.6485 39.2488C23.6485 40.0517 22.9977 40.7025 22.1949 40.7025C21.392 40.7025 20.7412 40.0517 20.7412 39.2488C20.7412 38.446 21.392 37.7952 22.1949 37.7952C22.9977 37.7952 23.6485 38.446 23.6485 39.2488Z" fill="#232323"/>
<path fill-rule="evenodd" clip-rule="evenodd" d="M32.3707 39.2488C32.3707 40.0517 31.7199 40.7025 30.917 40.7025C30.1142 40.7025 29.4634 40.0517 29.4634 39.2488C29.4634 38.446 30.1142 37.7952 30.917 37.7952C31.7199 37.7952 32.3707 38.446 32.3707 39.2488Z" fill="#F2F2F2"/>
<path fill-rule="evenodd" clip-rule="evenodd" d="M12.0196 45.0635C12.0196 45.8664 11.3688 46.5172 10.566 46.5172C9.76313 46.5172 9.1123 45.8664 9.1123 45.0635C9.1123 44.2607 9.76313 43.6099 10.566 43.6099C11.3688 43.6099 12.0196 44.2607 12.0196 45.0635Z" fill="#232323"/>
<path fill-rule="evenodd" clip-rule="evenodd" d="M20.7418 45.0635C20.7418 45.8664 20.091 46.5172 19.2881 46.5172C18.4853 46.5172 17.8345 45.8664 17.8345 45.0635C17.8345 44.2607 18.4853 43.6099 19.2881 43.6099C20.091 43.6099 20.7418 44.2607 20.7418 45.0635Z" fill="#F2F2F2"/>
<path fill-rule="evenodd" clip-rule="evenodd" d="M29.4635 45.0635C29.4635 45.8664 28.8126 46.5172 28.0098 46.5172C27.207 46.5172 26.5562 45.8664 26.5562 45.0635C26.5562 44.2607 27.207 43.6099 28.0098 43.6099C28.8126 43.6099 29.4635 44.2607 29.4635 45.0635Z" fill="#232323"/>
</svg>
