<svg width="44" height="54" viewBox="0 0 44 54" fill="none" xmlns="http://www.w3.org/2000/svg">
<path fill-rule="evenodd" clip-rule="evenodd" d="M30.8231 29.3202C30.8231 37.5683 24.3738 44.2547 16.4181 44.2547C8.46251 44.2547 2.01318 37.5683 2.01318 29.3202C2.01318 21.072 8.46251 14.3856 16.4181 14.3856C24.3738 14.3856 30.8231 21.072 30.8231 29.3202Z" fill="#CCCCCC"/>
<path fill-rule="evenodd" clip-rule="evenodd" d="M9.75386 35.7481L7.03632 40.4471L4.31878 45.146L5.36545 39.8197L6.41211 34.4934L8.08299 35.1208L9.75386 35.7481Z" fill="#FFD42A"/>
<path d="M9.78457 35.6928L5.60596 33.2803L4.55048 35.1084L8.72909 37.5209L9.78457 35.6928Z" fill="#FFD42A"/>
<path d="M10.1333 29.6609L8.30518 28.6055L5.59109 33.3064L7.41923 34.3619L10.1333 29.6609Z" fill="#FFD42A"/>
<path fill-rule="evenodd" clip-rule="evenodd" d="M25.6264 36.8082L22.9089 41.5071L20.1913 46.2061L21.238 40.8798L22.2847 35.5535L23.9555 36.1808L25.6264 36.8082Z" fill="#FFD42A"/>
<path d="M25.6571 36.7529L21.4785 34.3403L20.423 36.1685L24.6016 38.581L25.6571 36.7529Z" fill="#FFD42A"/>
<path d="M26.0059 30.7211L24.1777 29.6656L21.4636 34.3666L23.2918 35.4221L26.0059 30.7211Z" fill="#FFD42A"/>
<path fill-rule="evenodd" clip-rule="evenodd" d="M18.5613 0.812622C22.6534 0.812622 26.1602 3.12941 28.0246 6.46838C29.0742 5.68231 30.4147 5.17361 31.8859 5.17361C35.2293 5.17361 37.9429 7.61576 37.9429 10.6248C37.9429 11.3006 37.8145 11.9353 37.5644 12.5327C41.3671 14.0613 43.9999 17.5239 43.9999 21.5273C43.9999 26.9633 39.1373 31.3395 33.0972 31.3395H11.2928C5.25274 31.3395 0.390137 26.9633 0.390137 21.5273C0.390137 17.2208 3.46227 13.5881 7.73369 12.2602C7.73369 12.0751 7.65856 11.9037 7.65856 11.7153C7.65856 5.69706 12.543 0.812622 18.5613 0.812622Z" fill="#232323"/>
<path fill-rule="evenodd" clip-rule="evenodd" d="M20.394 32.7253L14.9589 42.1232L9.52379 51.5211L11.6171 40.8685L13.7104 30.2158L17.0522 31.4706L20.394 32.7253Z" fill="#FFD42A"/>
<path d="M20.4559 32.6148L12.0986 27.7898L9.98767 31.4461L18.3449 36.2711L20.4559 32.6148Z" fill="#FFD42A"/>
<path d="M21.1529 20.551L17.4966 18.4401L12.0684 27.8419L15.7247 29.9529L21.1529 20.551Z" fill="#FFD42A"/>
<path fill-rule="evenodd" clip-rule="evenodd" d="M17.8341 34.2469C17.8341 35.0497 17.1832 35.7005 16.3804 35.7005C15.5776 35.7005 14.9268 35.0497 14.9268 34.2469C14.9268 33.444 15.5776 32.7932 16.3804 32.7932C17.1832 32.7932 17.8341 33.444 17.8341 34.2469Z" fill="#232323"/>
<path fill-rule="evenodd" clip-rule="evenodd" d="M26.5562 34.2469C26.5562 35.0497 25.9054 35.7005 25.1026 35.7005C24.2997 35.7005 23.6489 35.0497 23.6489 34.2469C23.6489 33.444 24.2997 32.7932 25.1026 32.7932C25.9054 32.7932 26.5562 33.444 26.5562 34.2469Z" fill="#F2F2F2"/>
<path fill-rule="evenodd" clip-rule="evenodd" d="M35.2779 34.2469C35.2779 35.0497 34.6271 35.7005 33.8243 35.7005C33.0214 35.7005 32.3706 35.0497 32.3706 34.2469C32.3706 33.444 33.0214 32.7932 33.8243 32.7932C34.6271 32.7932 35.2779 33.444 35.2779 34.2469Z" fill="#232323"/>
<path fill-rule="evenodd" clip-rule="evenodd" d="M14.9269 40.0614C14.9269 40.8643 14.276 41.5151 13.4732 41.5151C12.6704 41.5151 12.0195 40.8643 12.0195 40.0614C12.0195 39.2586 12.6704 38.6078 13.4732 38.6078C14.276 38.6078 14.9269 39.2586 14.9269 40.0614Z" fill="#F2F2F2"/>
<path fill-rule="evenodd" clip-rule="evenodd" d="M23.6485 40.0614C23.6485 40.8643 22.9977 41.5151 22.1949 41.5151C21.392 41.5151 20.7412 40.8643 20.7412 40.0614C20.7412 39.2586 21.392 38.6078 22.1949 38.6078C22.9977 38.6078 23.6485 39.2586 23.6485 40.0614Z" fill="#232323"/>
<path fill-rule="evenodd" clip-rule="evenodd" d="M32.3707 40.0614C32.3707 40.8643 31.7199 41.5151 30.917 41.5151C30.1142 41.5151 29.4634 40.8643 29.4634 40.0614C29.4634 39.2586 30.1142 38.6078 30.917 38.6078C31.7199 38.6078 32.3707 39.2586 32.3707 40.0614Z" fill="#F2F2F2"/>
<path fill-rule="evenodd" clip-rule="evenodd" d="M12.0196 45.8761C12.0196 46.679 11.3688 47.3298 10.566 47.3298C9.76313 47.3298 9.1123 46.679 9.1123 45.8761C9.1123 45.0733 9.76313 44.4225 10.566 44.4225C11.3688 44.4225 12.0196 45.0733 12.0196 45.8761Z" fill="#232323"/>
<path fill-rule="evenodd" clip-rule="evenodd" d="M20.7418 45.8761C20.7418 46.679 20.091 47.3298 19.2881 47.3298C18.4853 47.3298 17.8345 46.679 17.8345 45.8761C17.8345 45.0733 18.4853 44.4225 19.2881 44.4225C20.091 44.4225 20.7418 45.0733 20.7418 45.8761Z" fill="#F2F2F2"/>
<path fill-rule="evenodd" clip-rule="evenodd" d="M29.4635 45.8761C29.4635 46.679 28.8126 47.3298 28.0098 47.3298C27.207 47.3298 26.5562 46.679 26.5562 45.8761C26.5562 45.0733 27.207 44.4225 28.0098 44.4225C28.8126 44.4225 29.4635 45.0733 29.4635 45.8761Z" fill="#232323"/>
</svg>
