<svg width="44" height="53" viewBox="0 0 44 53" fill="none" xmlns="http://www.w3.org/2000/svg">
<path fill-rule="evenodd" clip-rule="evenodd" d="M31.066 28.1383C31.066 36.2345 24.7354 42.7978 16.9263 42.7978C9.11717 42.7978 2.78662 36.2345 2.78662 28.1383C2.78662 20.042 9.11717 13.4788 16.9263 13.4788C24.7354 13.4788 31.066 20.042 31.066 28.1383Z" fill="#FFF696"/>
<path fill-rule="evenodd" clip-rule="evenodd" d="M24.9263 35.5564L22.283 40.1271L19.6396 44.6977L20.6577 39.5168L21.6758 34.3359L23.301 34.9462L24.9263 35.5564Z" fill="#FFD42A"/>
<path d="M24.9571 35.5029L20.8926 33.1562L19.8659 34.9345L23.9304 37.2811L24.9571 35.5029Z" fill="#FFD42A"/>
<path d="M25.2958 29.6357L23.5176 28.609L20.8776 33.1816L22.6558 34.2082L25.2958 29.6357Z" fill="#FFD42A"/>
<path fill-rule="evenodd" clip-rule="evenodd" d="M9.48684 34.5254L6.8435 39.096L4.20016 43.6667L5.21824 38.4858L6.23633 33.3049L7.86158 33.9152L9.48684 34.5254Z" fill="#FFD42A"/>
<path d="M9.51715 34.4718L5.45264 32.1251L4.42598 33.9033L8.49049 36.25L9.51715 34.4718Z" fill="#FFD42A"/>
<path d="M9.85635 28.6045L8.07812 27.5779L5.43814 32.1505L7.21637 33.1771L9.85635 28.6045Z" fill="#FFD42A"/>
<path fill-rule="evenodd" clip-rule="evenodd" d="M19.0299 0.155762C23.0467 0.155762 26.4889 2.42988 28.3189 5.70736C29.3491 4.93576 30.665 4.43644 32.109 4.43644C35.3909 4.43644 38.0545 6.83361 38.0545 9.78727C38.0545 10.4506 37.9285 11.0736 37.683 11.66C41.4156 13.1604 44 16.5593 44 20.489C44 25.8248 39.227 30.1204 33.2981 30.1204H11.8953C5.96641 30.1204 1.19336 25.8248 1.19336 20.489C1.19336 16.2618 4.20891 12.696 8.40167 11.3925C8.40167 11.2108 8.32792 11.0426 8.32792 10.8576C8.32792 4.95025 13.1224 0.155762 19.0299 0.155762Z" fill="#808080"/>
<path fill-rule="evenodd" clip-rule="evenodd" d="M19.8374 31.5852L14.5508 40.7265L9.26409 49.8678L11.3003 39.506L13.3364 29.1443L16.5869 30.3648L19.8374 31.5852Z" fill="#FFD42A"/>
<path d="M19.8976 31.4777L11.7686 26.7844L9.71524 30.3409L17.8443 35.0342L19.8976 31.4777Z" fill="#FFD42A"/>
<path d="M20.5755 19.7434L17.019 17.6901L11.7391 26.8352L15.2955 28.8885L20.5755 19.7434Z" fill="#FFD42A"/>
<path fill-rule="evenodd" clip-rule="evenodd" d="M18.3162 32.9743C18.3162 33.7623 17.6773 34.4011 16.8893 34.4011C16.1012 34.4011 15.4624 33.7623 15.4624 32.9743C15.4624 32.1862 16.1012 31.5474 16.8893 31.5474C17.6773 31.5474 18.3162 32.1862 18.3162 32.9743Z" fill="#232323"/>
<path fill-rule="evenodd" clip-rule="evenodd" d="M26.8772 32.9743C26.8772 33.7623 26.2384 34.4011 25.4503 34.4011C24.6623 34.4011 24.0234 33.7623 24.0234 32.9743C24.0234 32.1862 24.6623 31.5474 25.4503 31.5474C26.2384 31.5474 26.8772 32.1862 26.8772 32.9743Z" fill="#F2F2F2"/>
<path fill-rule="evenodd" clip-rule="evenodd" d="M35.4387 32.9743C35.4387 33.7623 34.7999 34.4011 34.0118 34.4011C33.2238 34.4011 32.585 33.7623 32.585 32.9743C32.585 32.1862 33.2238 31.5474 34.0118 31.5474C34.7999 31.5474 35.4387 32.1862 35.4387 32.9743Z" fill="#232323"/>
<path fill-rule="evenodd" clip-rule="evenodd" d="M15.4622 38.6818C15.4622 39.4698 14.8233 40.1087 14.0353 40.1087C13.2472 40.1087 12.6084 39.4698 12.6084 38.6818C12.6084 37.8937 13.2472 37.2549 14.0353 37.2549C14.8233 37.2549 15.4622 37.8937 15.4622 38.6818Z" fill="#F2F2F2"/>
<path fill-rule="evenodd" clip-rule="evenodd" d="M24.0237 38.6818C24.0237 39.4698 23.3849 40.1087 22.5968 40.1087C21.8088 40.1087 21.1699 39.4698 21.1699 38.6818C21.1699 37.8937 21.8088 37.2549 22.5968 37.2549C23.3849 37.2549 24.0237 37.8937 24.0237 38.6818Z" fill="#232323"/>
<path fill-rule="evenodd" clip-rule="evenodd" d="M32.5847 38.6818C32.5847 39.4698 31.9459 40.1087 31.1578 40.1087C30.3698 40.1087 29.731 39.4698 29.731 38.6818C29.731 37.8937 30.3698 37.2549 31.1578 37.2549C31.9459 37.2549 32.5847 37.8937 32.5847 38.6818Z" fill="#F2F2F2"/>
<path fill-rule="evenodd" clip-rule="evenodd" d="M12.6087 44.3894C12.6087 45.1775 11.9698 45.8163 11.1818 45.8163C10.3937 45.8163 9.75488 45.1775 9.75488 44.3894C9.75488 43.6014 10.3937 42.9625 11.1818 42.9625C11.9698 42.9625 12.6087 43.6014 12.6087 44.3894Z" fill="#232323"/>
<path fill-rule="evenodd" clip-rule="evenodd" d="M21.1697 44.3894C21.1697 45.1775 20.5309 45.8163 19.7428 45.8163C18.9548 45.8163 18.3159 45.1775 18.3159 44.3894C18.3159 43.6014 18.9548 42.9625 19.7428 42.9625C20.5309 42.9625 21.1697 43.6014 21.1697 44.3894Z" fill="#F2F2F2"/>
<path fill-rule="evenodd" clip-rule="evenodd" d="M29.7312 44.3894C29.7312 45.1775 29.0924 45.8163 28.3043 45.8163C27.5163 45.8163 26.8774 45.1775 26.8774 44.3894C26.8774 43.6014 27.5163 42.9625 28.3043 42.9625C29.0924 42.9625 29.7312 43.6014 29.7312 44.3894Z" fill="#232323"/>
</svg>
