<svg width="44" height="52" viewBox="0 0 44 52" fill="none" xmlns="http://www.w3.org/2000/svg">
<path fill-rule="evenodd" clip-rule="evenodd" d="M24.9263 35.4007L22.283 39.9713L19.6396 44.5419L20.6577 39.3611L21.6758 34.1802L23.301 34.7904L24.9263 35.4007Z" fill="#FFD42A"/>
<path d="M24.9571 35.3471L20.8926 33.0005L19.8659 34.7787L23.9304 37.1254L24.9571 35.3471Z" fill="#FFD42A"/>
<path d="M25.2958 29.4799L23.5176 28.4532L20.8776 33.0258L22.6558 34.0525L25.2958 29.4799Z" fill="#FFD42A"/>
<path fill-rule="evenodd" clip-rule="evenodd" d="M9.48684 34.3696L6.8435 38.9403L4.20016 43.5109L5.21824 38.3301L6.23633 33.1492L7.86158 33.7594L9.48684 34.3696Z" fill="#FFD42A"/>
<path d="M9.51715 34.316L5.45264 31.9694L4.42598 33.7476L8.49049 36.0942L9.51715 34.316Z" fill="#FFD42A"/>
<path d="M9.85635 28.4488L8.07812 27.4221L5.43814 31.9947L7.21637 33.0214L9.85635 28.4488Z" fill="#FFD42A"/>
<path fill-rule="evenodd" clip-rule="evenodd" d="M19.0299 0C23.0467 0 26.4889 2.27412 28.3189 5.5516C29.3491 4.78 30.665 4.28068 32.109 4.28068C35.3909 4.28068 38.0545 6.67784 38.0545 9.6315C38.0545 10.2948 37.9285 10.9178 37.683 11.5043C41.4156 13.0047 44 16.4035 44 20.3332C44 25.6691 39.227 29.9646 33.2981 29.9646H11.8953C5.96641 29.9646 1.19336 25.6691 1.19336 20.3332C1.19336 16.106 4.20891 12.5402 8.40167 11.2368C8.40167 11.055 8.32792 10.8869 8.32792 10.7019C8.32792 4.79449 13.1224 0 19.0299 0Z" fill="#232323"/>
<path fill-rule="evenodd" clip-rule="evenodd" d="M19.8374 31.4295L14.5508 40.5708L9.26409 49.712L11.3003 39.3503L13.3364 28.9885L16.5869 30.209L19.8374 31.4295Z" fill="#FFD42A"/>
<path d="M19.8976 31.322L11.7686 26.6287L9.71524 30.1851L17.8443 34.8784L19.8976 31.322Z" fill="#FFD42A"/>
<path d="M20.5755 19.5876L17.019 17.5343L11.7391 26.6795L15.2955 28.7328L20.5755 19.5876Z" fill="#FFD42A"/>
<path fill-rule="evenodd" clip-rule="evenodd" d="M18.3162 32.8185C18.3162 33.6065 17.6773 34.2454 16.8893 34.2454C16.1012 34.2454 15.4624 33.6065 15.4624 32.8185C15.4624 32.0304 16.1012 31.3916 16.8893 31.3916C17.6773 31.3916 18.3162 32.0304 18.3162 32.8185Z" fill="#232323"/>
<path fill-rule="evenodd" clip-rule="evenodd" d="M26.8772 32.8185C26.8772 33.6065 26.2384 34.2454 25.4503 34.2454C24.6623 34.2454 24.0234 33.6065 24.0234 32.8185C24.0234 32.0304 24.6623 31.3916 25.4503 31.3916C26.2384 31.3916 26.8772 32.0304 26.8772 32.8185Z" fill="#F2F2F2"/>
<path fill-rule="evenodd" clip-rule="evenodd" d="M35.4387 32.8185C35.4387 33.6065 34.7999 34.2454 34.0118 34.2454C33.2238 34.2454 32.585 33.6065 32.585 32.8185C32.585 32.0304 33.2238 31.3916 34.0118 31.3916C34.7999 31.3916 35.4387 32.0304 35.4387 32.8185Z" fill="#232323"/>
<path fill-rule="evenodd" clip-rule="evenodd" d="M15.4622 38.526C15.4622 39.3141 14.8233 39.9529 14.0353 39.9529C13.2472 39.9529 12.6084 39.3141 12.6084 38.526C12.6084 37.738 13.2472 37.0991 14.0353 37.0991C14.8233 37.0991 15.4622 37.738 15.4622 38.526Z" fill="#F2F2F2"/>
<path fill-rule="evenodd" clip-rule="evenodd" d="M24.0237 38.526C24.0237 39.3141 23.3849 39.9529 22.5968 39.9529C21.8088 39.9529 21.1699 39.3141 21.1699 38.526C21.1699 37.738 21.8088 37.0991 22.5968 37.0991C23.3849 37.0991 24.0237 37.738 24.0237 38.526Z" fill="#232323"/>
<path fill-rule="evenodd" clip-rule="evenodd" d="M32.5847 38.526C32.5847 39.3141 31.9459 39.9529 31.1578 39.9529C30.3698 39.9529 29.731 39.3141 29.731 38.526C29.731 37.738 30.3698 37.0991 31.1578 37.0991C31.9459 37.0991 32.5847 37.738 32.5847 38.526Z" fill="#F2F2F2"/>
<path fill-rule="evenodd" clip-rule="evenodd" d="M12.6087 44.2337C12.6087 45.0217 11.9698 45.6605 11.1818 45.6605C10.3937 45.6605 9.75488 45.0217 9.75488 44.2337C9.75488 43.4456 10.3937 42.8068 11.1818 42.8068C11.9698 42.8068 12.6087 43.4456 12.6087 44.2337Z" fill="#232323"/>
<path fill-rule="evenodd" clip-rule="evenodd" d="M21.1697 44.2337C21.1697 45.0217 20.5309 45.6605 19.7428 45.6605C18.9548 45.6605 18.3159 45.0217 18.3159 44.2337C18.3159 43.4456 18.9548 42.8068 19.7428 42.8068C20.5309 42.8068 21.1697 43.4456 21.1697 44.2337Z" fill="#F2F2F2"/>
<path fill-rule="evenodd" clip-rule="evenodd" d="M29.7312 44.2337C29.7312 45.0217 29.0924 45.6605 28.3043 45.6605C27.5163 45.6605 26.8774 45.0217 26.8774 44.2337C26.8774 43.4456 27.5163 42.8068 28.3043 42.8068C29.0924 42.8068 29.7312 43.4456 29.7312 44.2337Z" fill="#232323"/>
</svg>
