<svg width="44" height="46" viewBox="0 0 44 46" fill="none" xmlns="http://www.w3.org/2000/svg">
<path fill-rule="evenodd" clip-rule="evenodd" d="M30.7054 29.696C30.7054 38.0179 24.1984 44.7642 16.1716 44.7642C8.14472 44.7642 1.6377 38.0179 1.6377 29.696C1.6377 21.3741 8.14472 14.6278 16.1716 14.6278C24.1984 14.6278 30.7054 21.3741 30.7054 29.696Z" fill="#FFF696"/>
<path fill-rule="evenodd" clip-rule="evenodd" d="M18.3338 0.93335C22.4625 0.93335 26.0007 3.27087 27.8817 6.63972C28.9407 5.84661 30.2932 5.33336 31.7775 5.33336C35.1509 5.33336 37.8888 7.79736 37.8888 10.8334C37.8888 11.5152 37.7592 12.1555 37.5069 12.7583C41.3436 14.3006 44 17.7942 44 21.8334C44 27.318 39.0939 31.7333 32.9998 31.7333H11.0002C4.90611 31.7333 0 27.318 0 21.8334C0 17.4884 3.09962 13.8232 7.40927 12.4834C7.40927 12.2966 7.33346 12.1237 7.33346 11.9336C7.33346 5.8615 12.2616 0.93335 18.3338 0.93335Z" fill="#808080"/>
<path fill-rule="evenodd" clip-rule="evenodd" d="M13.2114 35.1051L13.2379 35.1652L13.3032 35.1581L13.2644 35.2111L13.3032 35.2641L13.2379 35.257L13.2114 35.3171L13.1849 35.257L13.1196 35.2641L13.1584 35.2111L13.1196 35.1581L13.1849 35.1652L13.2114 35.1051Z" fill="#232323" stroke="#232323" stroke-width="0.8"/>
<path fill-rule="evenodd" clip-rule="evenodd" d="M30.6514 35.1051L30.6779 35.1652L30.7432 35.1581L30.7044 35.2111L30.7432 35.2641L30.6779 35.257L30.6514 35.3171L30.6249 35.257L30.5596 35.2641L30.5984 35.2111L30.5596 35.1581L30.6249 35.1652L30.6514 35.1051Z" fill="#232323" stroke="#232323" stroke-width="0.8"/>
<path fill-rule="evenodd" clip-rule="evenodd" d="M11.758 39.4653L11.7892 39.5285L11.8588 39.5386L11.8084 39.5878L11.8203 39.6571L11.758 39.6244L11.6957 39.6571L11.7076 39.5878L11.6572 39.5386L11.7269 39.5285L11.758 39.4653Z" fill="#232323" stroke="#232323" stroke-width="0.8"/>
<path fill-rule="evenodd" clip-rule="evenodd" d="M10.3042 43.8254L10.3307 43.8855L10.396 43.8784L10.3572 43.9314L10.396 43.9844L10.3307 43.9773L10.3042 44.0374L10.2777 43.9773L10.2124 43.9844L10.2512 43.9314L10.2124 43.8784L10.2777 43.8855L10.3042 43.8254Z" fill="#232323" stroke="#232323" stroke-width="0.8"/>
<path fill-rule="evenodd" clip-rule="evenodd" d="M29.1984 39.4653L29.2296 39.5285L29.2992 39.5386L29.2488 39.5878L29.2608 39.6571L29.1984 39.6244L29.1361 39.6571L29.1481 39.5878L29.0977 39.5386L29.1673 39.5285L29.1984 39.4653Z" fill="#232323" stroke="#232323" stroke-width="0.8"/>
<path fill-rule="evenodd" clip-rule="evenodd" d="M20.478 39.4653L20.5045 39.5254L20.5698 39.5183L20.531 39.5713L20.5698 39.6243L20.5045 39.6172L20.478 39.6773L20.4515 39.6172L20.3862 39.6243L20.425 39.5713L20.3862 39.5183L20.4515 39.5254L20.478 39.4653Z" fill="#232323" stroke="#232323" stroke-width="0.8"/>
<path fill-rule="evenodd" clip-rule="evenodd" d="M21.9313 35.1051L21.9625 35.1682L22.0322 35.1784L21.9817 35.2275L21.9937 35.2969L21.9314 35.2642L21.8691 35.2969L21.881 35.2275L21.8306 35.1784L21.9002 35.1682L21.9313 35.1051Z" fill="#232323" stroke="#232323" stroke-width="0.8"/>
<path fill-rule="evenodd" clip-rule="evenodd" d="M19.0246 43.8254L19.0558 43.8886L19.1254 43.8987L19.075 43.9479L19.0869 44.0173L19.0246 43.9845L18.9623 44.0173L18.9742 43.9479L18.9238 43.8987L18.9935 43.8886L19.0246 43.8254Z" fill="#232323" stroke="#232323" stroke-width="0.8"/>
<path fill-rule="evenodd" clip-rule="evenodd" d="M27.7451 43.8254L27.7716 43.8855L27.8369 43.8784L27.7981 43.9314L27.8369 43.9844L27.7716 43.9773L27.7451 44.0374L27.7186 43.9773L27.6533 43.9844L27.6921 43.9314L27.6533 43.8784L27.7186 43.8855L27.7451 43.8254Z" fill="#232323" stroke="#232323" stroke-width="0.8"/>
<path fill-rule="evenodd" clip-rule="evenodd" d="M17.004 37.2853L17.0414 37.3538L17.11 37.3913L17.0414 37.4288L17.004 37.4973L16.9665 37.4288L16.8979 37.3913L16.9665 37.3538L17.004 37.2853Z" fill="#232323" stroke="#E6E6E6" stroke-width="0.8"/>
<path fill-rule="evenodd" clip-rule="evenodd" d="M25.8257 37.5365L25.8632 37.605L25.9317 37.6425L25.8632 37.68L25.8257 37.7485L25.7883 37.68L25.7197 37.6425L25.7883 37.605L25.8257 37.5365Z" fill="#232323" stroke="#E6E6E6" stroke-width="0.8"/>
<path fill-rule="evenodd" clip-rule="evenodd" d="M15.2252 42.2008L15.2626 42.2693L15.3312 42.3068L15.2626 42.3443L15.2252 42.4128L15.1877 42.3443L15.1191 42.3068L15.1877 42.2693L15.2252 42.2008Z" fill="#232323" stroke="#E6E6E6" stroke-width="0.8"/>
<path fill-rule="evenodd" clip-rule="evenodd" d="M23.918 42.2008L23.9555 42.2693L24.024 42.3068L23.9555 42.3443L23.918 42.4128L23.8805 42.3443L23.812 42.3068L23.8805 42.2693L23.918 42.2008Z" fill="#232323" stroke="#E6E6E6" stroke-width="0.8"/>
</svg>
