<svg width="44" height="45" viewBox="0 0 44 45" fill="none" xmlns="http://www.w3.org/2000/svg">
<path fill-rule="evenodd" clip-rule="evenodd" d="M30.7054 29.0902C30.7054 37.4121 24.1984 44.1584 16.1716 44.1584C8.14472 44.1584 1.6377 37.4121 1.6377 29.0902C1.6377 20.7682 8.14472 14.022 16.1716 14.022C24.1984 14.022 30.7054 20.7682 30.7054 29.0902Z" fill="#CCCCCC"/>
<path fill-rule="evenodd" clip-rule="evenodd" d="M18.3338 0.327515C22.4625 0.327515 26.0007 2.66503 27.8817 6.03388C28.9407 5.24077 30.2932 4.72753 31.7775 4.72753C35.1509 4.72753 37.8888 7.19152 37.8888 10.2275C37.8888 10.9093 37.7592 11.5497 37.5069 12.1525C41.3436 13.6947 44 17.1883 44 21.2276C44 26.7122 39.0939 31.1275 32.9998 31.1275H11.0002C4.90611 31.1275 0 26.7122 0 21.2276C0 16.8825 3.09962 13.2174 7.40927 11.8775C7.40927 11.6907 7.33346 11.5179 7.33346 11.3277C7.33346 5.25566 12.2616 0.327515 18.3338 0.327515Z" fill="#808080"/>
<path fill-rule="evenodd" clip-rule="evenodd" d="M13.2114 34.4993L13.2379 34.5594L13.3032 34.5522L13.2644 34.6052L13.3032 34.6583L13.2379 34.6511L13.2114 34.7112L13.1849 34.6511L13.1196 34.6583L13.1584 34.6052L13.1196 34.5522L13.1849 34.5594L13.2114 34.4993Z" fill="#232323" stroke="#232323" stroke-width="0.8"/>
<path fill-rule="evenodd" clip-rule="evenodd" d="M30.6514 34.4993L30.6779 34.5594L30.7432 34.5522L30.7044 34.6052L30.7432 34.6583L30.6779 34.6511L30.6514 34.7112L30.6249 34.6511L30.5596 34.6583L30.5984 34.6052L30.5596 34.5522L30.6249 34.5594L30.6514 34.4993Z" fill="#232323" stroke="#232323" stroke-width="0.8"/>
<path fill-rule="evenodd" clip-rule="evenodd" d="M11.758 38.8595L11.7892 38.9226L11.8588 38.9328L11.8084 38.9819L11.8203 39.0513L11.758 39.0186L11.6957 39.0513L11.7076 38.9819L11.6572 38.9328L11.7269 38.9226L11.758 38.8595Z" fill="#232323" stroke="#232323" stroke-width="0.8"/>
<path fill-rule="evenodd" clip-rule="evenodd" d="M10.3042 43.2196L10.3307 43.2797L10.396 43.2726L10.3572 43.3256L10.396 43.3786L10.3307 43.3715L10.3042 43.4316L10.2777 43.3715L10.2124 43.3786L10.2512 43.3256L10.2124 43.2726L10.2777 43.2797L10.3042 43.2196Z" fill="#232323" stroke="#232323" stroke-width="0.8"/>
<path fill-rule="evenodd" clip-rule="evenodd" d="M29.1984 38.8595L29.2296 38.9226L29.2992 38.9328L29.2488 38.9819L29.2608 39.0513L29.1984 39.0186L29.1361 39.0513L29.1481 38.9819L29.0977 38.9328L29.1673 38.9226L29.1984 38.8595Z" fill="#232323" stroke="#232323" stroke-width="0.8"/>
<path fill-rule="evenodd" clip-rule="evenodd" d="M20.478 38.8595L20.5045 38.9196L20.5698 38.9125L20.531 38.9655L20.5698 39.0185L20.5045 39.0114L20.478 39.0715L20.4515 39.0114L20.3862 39.0185L20.425 38.9655L20.3862 38.9125L20.4515 38.9196L20.478 38.8595Z" fill="#232323" stroke="#232323" stroke-width="0.8"/>
<path fill-rule="evenodd" clip-rule="evenodd" d="M21.9313 34.4993L21.9625 34.5624L22.0322 34.5726L21.9817 34.6217L21.9937 34.6911L21.9314 34.6583L21.8691 34.6911L21.881 34.6217L21.8306 34.5726L21.9002 34.5624L21.9313 34.4993Z" fill="#232323" stroke="#232323" stroke-width="0.8"/>
<path fill-rule="evenodd" clip-rule="evenodd" d="M19.0246 43.2196L19.0558 43.2827L19.1254 43.2929L19.075 43.342L19.0869 43.4114L19.0246 43.3787L18.9623 43.4114L18.9742 43.342L18.9238 43.2929L18.9935 43.2827L19.0246 43.2196Z" fill="#232323" stroke="#232323" stroke-width="0.8"/>
<path fill-rule="evenodd" clip-rule="evenodd" d="M27.7451 43.2196L27.7716 43.2797L27.8369 43.2726L27.7981 43.3256L27.8369 43.3786L27.7716 43.3715L27.7451 43.4316L27.7186 43.3715L27.6533 43.3786L27.6921 43.3256L27.6533 43.2726L27.7186 43.2797L27.7451 43.2196Z" fill="#232323" stroke="#232323" stroke-width="0.8"/>
<path fill-rule="evenodd" clip-rule="evenodd" d="M17.004 36.6794L17.0414 36.748L17.11 36.7855L17.0414 36.8229L17.004 36.8915L16.9665 36.8229L16.8979 36.7855L16.9665 36.748L17.004 36.6794Z" fill="#232323" stroke="#E6E6E6" stroke-width="0.8"/>
<path fill-rule="evenodd" clip-rule="evenodd" d="M25.8257 36.9307L25.8632 36.9992L25.9317 37.0367L25.8632 37.0742L25.8257 37.1427L25.7883 37.0742L25.7197 37.0367L25.7883 36.9992L25.8257 36.9307Z" fill="#232323" stroke="#E6E6E6" stroke-width="0.8"/>
<path fill-rule="evenodd" clip-rule="evenodd" d="M15.2252 41.595L15.2626 41.6635L15.3312 41.701L15.2626 41.7385L15.2252 41.807L15.1877 41.7385L15.1191 41.701L15.1877 41.6635L15.2252 41.595Z" fill="#232323" stroke="#E6E6E6" stroke-width="0.8"/>
<path fill-rule="evenodd" clip-rule="evenodd" d="M23.918 41.595L23.9555 41.6635L24.024 41.701L23.9555 41.7385L23.918 41.807L23.8805 41.7385L23.812 41.701L23.8805 41.6635L23.918 41.595Z" fill="#232323" stroke="#E6E6E6" stroke-width="0.8"/>
</svg>
