<svg width="201" height="24" viewBox="0 0 201 24" fill="none" xmlns="http://www.w3.org/2000/svg">
<path d="M0.87125 0.599998H10.2793C12.7326 0.599998 14.6419 1.09067 16.0073 2.072C17.3726 3.05333 18.0553 4.472 18.0553 6.328C18.0553 7.65067 17.7139 8.73867 17.0312 9.592C16.3699 10.4453 15.4953 11.064 14.4073 11.448C15.9433 11.7467 17.1273 12.376 17.9593 13.336C18.8126 14.2747 19.2393 15.512 19.2393 17.048C19.2393 18.968 18.5459 20.44 17.1593 21.464C15.7939 22.488 13.7139 23 10.9193 23H0.87125V21.432H10.9193C13.0313 21.432 14.6313 21.08 15.7193 20.376C16.8286 19.6507 17.3833 18.4987 17.3833 16.92C17.3833 15.3413 16.8286 14.2 15.7193 13.496C14.6313 12.7707 13.0313 12.408 10.9193 12.408H0.87125V10.872H10.2153C12.1139 10.872 13.5859 10.5093 14.6313 9.784C15.6766 9.05867 16.1993 7.97067 16.1993 6.52C16.1993 5.06933 15.6766 3.98133 14.6313 3.256C13.5859 2.53067 12.1139 2.168 10.2153 2.168H0.87125V0.599998ZM32.9338 23V0.599998H34.7578V23H32.9338ZM68.8978 23H66.6578L57.1538 12.12L52.2578 17.112V23H50.4338V0.599998H52.2578V14.744L66.0178 0.599998H68.1938L58.4018 10.776L68.8978 23ZM80.9963 10.808H96.0683V12.44H80.9963V10.808ZM80.9963 0.247999H96.0683V1.88H80.9963V0.247999ZM80.9963 23H96.0683V21.368H80.9963V23ZM119.814 23.16C118.15 23.16 116.603 22.872 115.174 22.296C113.766 21.72 112.539 20.9307 111.494 19.928C110.448 18.9253 109.627 17.7307 109.03 16.344C108.454 14.936 108.166 13.4213 108.166 11.8C108.166 10.1573 108.454 8.64267 109.03 7.256C109.627 5.86933 110.448 4.67467 111.494 3.672C112.539 2.66933 113.766 1.88 115.174 1.304C116.603 0.727999 118.15 0.439999 119.814 0.439999C121.414 0.439999 122.907 0.706666 124.294 1.24C125.68 1.752 126.875 2.53067 127.878 3.576L126.694 4.76C125.734 3.8 124.678 3.11733 123.526 2.712C122.395 2.30667 121.179 2.104 119.878 2.104C118.47 2.104 117.158 2.34933 115.942 2.84C114.747 3.33066 113.712 4.01333 112.838 4.888C111.963 5.74133 111.27 6.76533 110.758 7.96C110.267 9.13333 110.022 10.4133 110.022 11.8C110.022 13.1867 110.267 14.4773 110.758 15.672C111.27 16.8453 111.963 17.8693 112.838 18.744C113.712 19.5973 114.747 20.2693 115.942 20.76C117.158 21.2507 118.47 21.496 119.878 21.496C121.179 21.496 122.395 21.2933 123.526 20.888C124.678 20.4613 125.734 19.768 126.694 18.808L127.878 19.992C126.875 21.0587 125.68 21.8587 124.294 22.392C122.907 22.904 121.414 23.16 119.814 23.16ZM141.215 23V0.599998H143.039V23H141.215ZM163.003 23V2.232H155.003V0.599998H172.859V2.232H164.859V23H163.003ZM191.851 23H189.995V15.288L181.003 0.599998H182.987L190.955 13.624L198.955 0.599998H200.843L191.851 15.288V23Z" fill="#B0EFFF"/>
</svg>
