<svg width="14" height="14" viewBox="0 0 14 14" fill="none" xmlns="http://www.w3.org/2000/svg">
<path d="M10.6075 6.42775C10.5824 6.28017 9.88591 2.1 9.90749 2.23708C9.88476 2.10118 9.81465 1.97771 9.70958 1.88856C9.60452 1.7994 9.47129 1.75032 9.33349 1.75H7.00016C6.84545 1.75 6.69708 1.81146 6.58768 1.92085C6.47828 2.03025 6.41683 2.17862 6.41683 2.33333C6.41683 2.48804 6.47828 2.63642 6.58768 2.74581C6.69708 2.85521 6.84545 2.91667 7.00016 2.91667H8.83941L9.18124 4.96825L5.58033 7.29458C5.06664 6.76301 4.37364 6.44144 3.63605 6.3924C2.89845 6.34337 2.16898 6.57037 1.58945 7.02927C1.00992 7.48817 0.621737 8.14618 0.500381 8.87537C0.379024 9.60456 0.533161 10.3528 0.932826 10.9747C1.33249 11.5966 1.94912 12.0476 2.66284 12.2401C3.37655 12.4326 4.13635 12.3528 4.79452 12.0162C5.45268 11.6797 5.96218 11.1104 6.22396 10.4191C6.48573 9.72779 6.48108 8.96383 6.21091 8.27575L9.39008 6.22183L9.45599 6.61792C8.78086 6.87598 8.22559 7.37553 7.89783 8.01972C7.57008 8.66391 7.49318 9.40685 7.68205 10.1045C7.87093 10.8022 8.31211 11.4049 8.92009 11.7957C9.52806 12.1866 10.2595 12.3378 10.9726 12.22C11.6857 12.1023 12.3297 11.7239 12.7797 11.1583C13.2298 10.5927 13.4537 9.88019 13.4083 9.15885C13.3628 8.4375 13.0511 7.75873 12.5336 7.25413C12.0162 6.74953 11.3298 6.45504 10.6075 6.42775ZM3.50016 11.0833C3.03603 11.0833 2.59091 10.899 2.26272 10.5708C1.93453 10.2426 1.75016 9.79746 1.75016 9.33333C1.75016 8.8692 1.93453 8.42408 2.26272 8.0959C2.59091 7.76771 3.03603 7.58333 3.50016 7.58333C3.88547 7.58474 4.2593 7.71469 4.56241 7.95258L3.18399 8.84333C3.11754 8.88387 3.05988 8.93731 3.01439 9.00048C2.96891 9.06365 2.93653 9.13529 2.91917 9.21117C2.9018 9.28705 2.8998 9.36564 2.91328 9.44231C2.92675 9.51897 2.95544 9.59217 2.99764 9.65758C3.03985 9.72298 3.09472 9.77929 3.15902 9.82316C3.22332 9.86703 3.29575 9.89759 3.37204 9.91304C3.44834 9.92849 3.52695 9.92851 3.60325 9.9131C3.67956 9.8977 3.752 9.86717 3.81633 9.82333L5.19883 8.93025C5.23168 9.06213 5.24891 9.19742 5.25016 9.33333C5.25016 9.79746 5.06579 10.2426 4.7376 10.5708C4.40941 10.899 3.96429 11.0833 3.50016 11.0833ZM10.5002 11.0833C10.1125 11.0846 9.73543 10.9568 9.42854 10.7199C9.12165 10.483 8.90242 10.1506 8.80549 9.77529C8.70856 9.39993 8.73944 9.00297 8.89326 8.64712C9.04708 8.29127 9.31508 7.99681 9.65491 7.81025L9.92499 9.42958C9.93598 9.50659 9.96226 9.58062 10.0023 9.64732C10.0423 9.71402 10.0953 9.77204 10.158 9.81797C10.2208 9.8639 10.2922 9.89681 10.3678 9.91476C10.4435 9.93271 10.522 9.93535 10.5988 9.92251C10.6755 9.90967 10.7488 9.88162 10.8146 9.84C10.8803 9.79839 10.937 9.74405 10.9814 9.68018C11.0258 9.61632 11.057 9.54421 11.0731 9.46812C11.0893 9.39202 11.09 9.31347 11.0753 9.23708L10.8052 7.61425C11.2315 7.69526 11.6124 7.93171 11.8741 8.27771C12.1359 8.62371 12.2597 9.0546 12.2217 9.48678C12.1837 9.91895 11.9865 10.3216 11.6684 10.6166C11.3503 10.9116 10.934 11.078 10.5002 11.0833ZM5.07924 3.67092L6.24591 4.83758C6.30162 4.89139 6.34606 4.95576 6.37664 5.02693C6.40721 5.0981 6.4233 5.17464 6.42397 5.2521C6.42465 5.32955 6.40989 5.40637 6.38056 5.47806C6.35123 5.54975 6.30791 5.61488 6.25314 5.66965C6.19837 5.72442 6.13324 5.76773 6.06155 5.79706C5.98986 5.82639 5.91305 5.84115 5.83559 5.84048C5.75814 5.83981 5.68159 5.82371 5.61042 5.79314C5.53926 5.76257 5.47489 5.71813 5.42108 5.66242L4.42533 4.66667H3.50016C3.34545 4.66667 3.19708 4.60521 3.08768 4.49581C2.97828 4.38642 2.91683 4.23804 2.91683 4.08333C2.91683 3.92862 2.97828 3.78025 3.08768 3.67085C3.19708 3.56146 3.34545 3.5 3.50016 3.5H4.66683C4.82152 3.50003 4.96987 3.56151 5.07924 3.67092Z" fill="#232323"/>
</svg>
