<svg width="25" height="25" viewBox="0 0 25 25" fill="none" xmlns="http://www.w3.org/2000/svg">
<path fill-rule="evenodd" clip-rule="evenodd" d="M14.5417 20.8333C13.9894 20.8333 13.5417 20.3856 13.5417 19.8333V17.6667C13.5417 17.1144 13.9894 16.6667 14.5417 16.6667H16.7094C17.2617 16.6667 17.7094 17.1144 17.7094 17.6667V19.8333C17.7094 20.3856 17.2617 20.8333 16.7094 20.8333H14.5417ZM8.29169 20.8333C7.7394 20.8333 7.29169 20.3856 7.29169 19.8333V17.6667C7.29169 17.1144 7.7394 16.6667 8.29169 16.6667H10.4584C11.0106 16.6667 11.4584 17.1144 11.4584 17.6667V19.8333C11.4584 20.3856 11.0106 20.8333 10.4584 20.8333H8.29169ZM2.04169 20.8333C1.4894 20.8333 1.04169 20.3856 1.04169 19.8333V17.6667C1.04169 17.1144 1.4894 16.6667 2.04169 16.6667H4.20835C4.76064 16.6667 5.20835 17.1144 5.20835 17.6667V19.8333C5.20835 20.3856 4.76064 20.8333 4.20835 20.8333H2.04169ZM14.5417 14.5833C13.9894 14.5833 13.5417 14.1356 13.5417 13.5833V11.4167C13.5417 10.8644 13.9894 10.4167 14.5417 10.4167H16.7084C17.2606 10.4167 17.7084 10.8644 17.7084 11.4167V13.5833C17.7084 14.1356 17.2606 14.5833 16.7084 14.5833H14.5417ZM8.29169 14.5833C7.7394 14.5833 7.29169 14.1356 7.29169 13.5833V11.4167C7.29169 10.8644 7.7394 10.4167 8.29169 10.4167H10.4584C11.0106 10.4167 11.4584 10.8644 11.4584 11.4167V13.5833C11.4584 14.1356 11.0106 14.5833 10.4584 14.5833H8.29169ZM2.04169 14.5833C1.4894 14.5833 1.04169 14.1356 1.04169 13.5833V11.4167C1.04169 10.8644 1.4894 10.4167 2.04169 10.4167H4.20835C4.76064 10.4167 5.20835 10.8644 5.20835 11.4167V13.5833C5.20835 14.1356 4.76064 14.5833 4.20835 14.5833H2.04169ZM20.7917 8.33333C20.2394 8.33333 19.7917 7.88561 19.7917 7.33333V5.16562C19.7917 4.61333 20.2394 4.16562 20.7917 4.16562H22.9584C23.5106 4.16562 23.9584 4.61333 23.9584 5.16562V7.33333C23.9584 7.88561 23.5106 8.33333 22.9584 8.33333H20.7917ZM20.7917 14.5833C20.2394 14.5833 19.7917 14.1356 19.7917 13.5833V11.4167C19.7917 10.8644 20.2394 10.4167 20.7917 10.4167H22.9584C23.5106 10.4167 23.9584 10.8644 23.9584 11.4167V13.5833C23.9584 14.1356 23.5106 14.5833 22.9584 14.5833H20.7917ZM14.5417 8.33333C13.9894 8.33333 13.5417 7.88561 13.5417 7.33333V5.16562C13.5417 4.61333 13.9894 4.16562 14.5417 4.16562H16.7094C17.2617 4.16562 17.7094 4.61333 17.7094 5.16562V7.33333C17.7094 7.88561 17.2617 8.33333 16.7094 8.33333H14.5417ZM8.29169 8.33333C7.7394 8.33333 7.29169 7.88561 7.29169 7.33333V5.16562C7.29169 4.61333 7.7394 4.16562 8.29169 4.16562H10.4584C11.0106 4.16562 11.4584 4.61333 11.4584 5.16562V7.33333C11.4584 7.88561 11.0106 8.33333 10.4584 8.33333H8.29169Z" fill="#B0EFFF"/>
</svg>
