<svg id="Layer_1" data-name="Layer 1" xmlns="http://www.w3.org/2000/svg" viewBox="0 0 8.97 13.31">
<path class="cls-1" d="M-.18-1.62,0-1.46l.18-.16C2.92-4,4-5.88,4-8.09H4A4,4,0,0,0,2.87-11,4,4,0,0,0,0-12.17,4,4,0,0,0-2.87-11,4,4,0,0,0-4-8.09C-4-5.88-2.92-4-.18-1.62Z" />
<path class="cls-2" d="M-.18-1.62,0-1.46l.18-.16C2.92-4,4-5.88,4-8.09H4A4,4,0,0,0,2.87-11,4,4,0,0,0,0-12.17,4,4,0,0,0-2.87-11,4,4,0,0,0-4-8.09C-4-5.88-2.92-4-.18-1.62Zm.18-10a3.47,3.47,0,0,1,2.49,1,3.46,3.46,0,0,1,1,2.51c0,2-1,3.71-3.49,5.91C-2.48-4.38-3.5-6.1-3.5-8.09a3.51,3.51,0,0,1,1-2.51,3.47,3.47,0,0,1,2.49-1Z"/>
<path class="cls-2" d="M1.67-8a1.66,1.66,0,0,0-.49-1.19A1.68,1.68,0,0,0,0-9.68a1.68,1.68,0,0,0-1.18.49A1.66,1.66,0,0,0-1.67-8a1.66,1.66,0,0,0,.49,1.18A1.68,1.68,0,0,0,0-6.33a1.68,1.68,0,0,0,1.18-.49A1.66,1.66,0,0,0,1.67-8Z"/>
<path d="M4.48.1c0,.57-2,1-4.48,1S-4.48.67-4.48.1s2-1,4.48-1,4.48.46,4.48,1"/></svg>