<svg xmlns="http://www.w3.org/2000/svg" width="20pt" height="20pt" version="1.1" viewBox="0 0 700 700">
 <g xmlns="http://www.w3.org/2000/svg">
       
  <path d="m 343.79 416.5 l 6.2109 5.4258 l 6.1953 -5.4062 c 95.883 -83.562 135 -149.24 135 -226.68 v -0.0039 c 0.418 -37.719 -14.273 -74.039 -40.797 -100.86 c -26.527 -26.82 -62.68 -41.918 -100.4 -41.918 c -37.723 0 -73.879 15.098 -100.4 41.918 c -26.527 26.824 -41.219 63.145 -40.797 100.86 c 0 77.422 39.129 143.1 135 226.66 z z" fill="#232323"/>
      <path d="m343.79 416.5 6.2109 5.4258 6.1953-5.4062c95.883-83.562 135-149.24 135-226.68v-0.003906c0.41797-37.719-14.273-74.039-40.797-100.86-26.527-26.82-62.68-41.918-100.4-41.918-37.723 0-73.879 15.098-100.4 41.918-26.527 26.824-41.219 63.145-40.797 100.86 0 77.422 39.129 143.1 135 226.66zm6.2109-350.63c32.762-0.11328 64.195 12.965 87.207 36.285 23.012 23.324 35.668 54.926 35.117 87.684 0 69.719-35.543 130.08-122.32 207.01-86.781-77-122.34-137.3-122.34-207.01-0.55078-32.762 12.109-64.367 35.125-87.688 23.016-23.324 54.453-36.398 87.219-36.281z" fill="#232323"/>
      <path d="m408.52 192.92c0-15.523-6.1641-30.406-17.141-41.383-10.973-10.973-25.859-17.141-41.379-17.141s-30.406 6.168-41.379 17.141c-10.977 10.977-17.141 25.859-17.141 41.383 0 15.52 6.1641 30.402 17.141 41.379 10.973 10.973 25.859 17.141 41.379 17.141s30.406-6.168 41.379-17.141c10.977-10.977 17.141-25.859 17.141-41.379z" fill="#B0EFFF"/>
  <path d="m506.89 476.56c0 20.125-70.238 36.438-156.89 36.438s-156.89-16.312-156.89-36.438c0-20.121 70.238-36.434 156.89-36.434s156.89 16.312 156.89 36.434"/>
 </g>
</svg>