<svg width="14" height="14" viewBox="0 0 14 14" fill="none" xmlns="http://www.w3.org/2000/svg">
<path d="M3.50016 7.75833L4.206 8.07333C4.71601 8.30495 5.2671 8.4325 5.82701 8.44853C6.38692 8.46455 6.94441 8.36873 7.46683 8.16666C7.86224 8.00904 8.28654 7.9369 8.71182 7.955C9.1371 7.97309 9.55374 8.08102 9.93433 8.27166L11.6843 9.135V3.13833L10.471 2.555C9.94238 2.29155 9.36402 2.14288 8.77389 2.11875C8.18375 2.09462 7.59519 2.19558 7.04683 2.415C6.66513 2.56264 6.2575 2.63152 5.84848 2.61749C5.43946 2.60345 5.03751 2.5068 4.66683 2.33333L3.50016 1.81416V1.16666H2.3335V12.8333H3.50016V7.75833Z" fill="black"/>
</svg>
