<svg width="12" height="12" viewBox="0 0 12 12" fill="none" xmlns="http://www.w3.org/2000/svg">
<g clip-path="url(#clip0_63_622)">
<path d="M10.7143 0H1.28571C0.575893 0 0 0.575893 0 1.28571V10.7143C0 11.4241 0.575893 12 1.28571 12H10.7143C11.4241 12 12 11.4241 12 10.7143V1.28571C12 0.575893 11.4241 0 10.7143 0ZM6.42857 7.71429H5.14286V9C5.14286 9.23571 4.95 9.42857 4.71429 9.42857H3.85714C3.62143 9.42857 3.42857 9.23571 3.42857 9V3C3.42857 2.76429 3.62143 2.57143 3.85714 2.57143H6.42857C7.84554 2.57143 9 3.72589 9 5.14286C9 6.55982 7.84554 7.71429 6.42857 7.71429ZM6.42857 4.28571H5.14286V6H6.42857C6.9 6 7.28571 5.61429 7.28571 5.14286C7.28571 4.67143 6.9 4.28571 6.42857 4.28571Z" fill="#232323"/>
</g>
<defs>
<clipPath id="clip0_63_622">
<rect width="12" height="12" fill="white"/>
</clipPath>
</defs>
</svg>
