<?xml version="1.0" encoding="UTF-8"?>
<svg xmlns="http://www.w3.org/2000/svg" xmlns:xlink="http://www.w3.org/1999/xlink" width="20px" height="20px" viewBox="0 0 20 20" version="1.1">
<g id="surface1">
<path d="M 10.5 5 L 9 5 L 9 8 L 10.5 8 C 11.035156 8 11.53125 7.714844 11.800781 7.25 C 12.066406 6.785156 12.066406 6.214844 11.800781 5.75 C 11.53125 5.285156 11.035156 5 10.5 5 Z M 10.5 5 " fill="#B0EFFF"/>
<path d="M 15 1.5 L 5 1.5 C 4.601562 1.5 4.21875 1.65625 3.9375 1.9375 C 3.65625 2.21875 3.5 2.601562 3.5 3 L 3.5 13 C 3.5 13.398438 3.65625 13.78125 3.9375 14.0625 C 4.21875 14.34375 4.601562 14.5 5 14.5 L 15 14.5 C 15.398438 14.5 15.78125 14.34375 16.0625 14.0625 C 16.34375 13.78125 16.5 13.398438 16.5 13 L 16.5 3 C 16.5 2.601562 16.34375 2.21875 16.0625 1.9375 C 15.78125 1.65625 15.398438 1.5 15 1.5 Z M 10.5 9 L 9 9 L 9 11.5 C 9 11.679688 8.90625 11.84375 8.75 11.933594 C 8.59375 12.023438 8.40625 12.023438 8.25 11.933594 C 8.09375 11.84375 8 11.679688 8 11.5 L 8 5 C 8 4.734375 8.105469 4.480469 8.292969 4.292969 C 8.480469 4.105469 8.734375 4 9 4 L 10.5 4 C 11.394531 4 12.21875 4.476562 12.664062 5.25 C 13.113281 6.023438 13.113281 6.976562 12.664062 7.75 C 12.21875 8.523438 11.394531 9 10.5 9 Z M 10.5 9 " fill="#B0EFFF"/>
</g>
</svg>
