<svg width="12" height="12" viewBox="0 0 12 12" fill="none" xmlns="http://www.w3.org/2000/svg">
<path d="M9.09193 5.5095C9.07043 5.383 8.47343 1.8 8.49193 1.9175C8.47244 1.80101 8.41234 1.69518 8.32229 1.61876C8.23223 1.54234 8.11804 1.50027 7.99993 1.5H5.99993C5.86732 1.5 5.74014 1.55268 5.64637 1.64645C5.55261 1.74021 5.49993 1.86739 5.49993 2C5.49993 2.13261 5.55261 2.25979 5.64637 2.35355C5.74014 2.44732 5.86732 2.5 5.99993 2.5H7.57643L7.86943 4.2585L4.78293 6.2525C4.34263 5.79686 3.74862 5.52123 3.1164 5.4792C2.48418 5.43717 1.85892 5.63174 1.36217 6.02509C0.865433 6.41843 0.532708 6.98244 0.428689 7.60746C0.324669 8.23248 0.456786 8.87385 0.799356 9.40688C1.14193 9.9399 1.67047 10.3265 2.28222 10.4915C2.89398 10.6565 3.54524 10.5881 4.10938 10.2996C4.67352 10.0112 5.11023 9.52322 5.33461 8.93066C5.55899 8.33811 5.555 7.68328 5.32343 7.0935L8.04843 5.333L8.10493 5.6725C7.52624 5.8937 7.05029 6.32188 6.76936 6.87405C6.48843 7.42621 6.42252 8.06301 6.58441 8.66101C6.7463 9.25901 7.12446 9.77559 7.64558 10.1106C8.1667 10.4456 8.79365 10.5753 9.40489 10.4743C10.0161 10.3734 10.5681 10.0491 10.9539 9.56427C11.3396 9.07948 11.5316 8.46873 11.4926 7.85044C11.4536 7.23214 11.1865 6.65034 10.7429 6.21783C10.2994 5.78531 9.71101 5.53289 9.09193 5.5095ZM2.99993 9.5C2.6021 9.5 2.22057 9.34196 1.93927 9.06066C1.65796 8.77936 1.49993 8.39782 1.49993 8C1.49993 7.60218 1.65796 7.22064 1.93927 6.93934C2.22057 6.65804 2.6021 6.5 2.99993 6.5C3.3302 6.50121 3.65062 6.61259 3.91043 6.8165L2.72893 7.58C2.67197 7.61475 2.62254 7.66055 2.58356 7.7147C2.54457 7.76884 2.51682 7.83025 2.50193 7.89529C2.48705 7.96033 2.48533 8.02769 2.49688 8.09341C2.50844 8.15912 2.53302 8.22186 2.5692 8.27792C2.60537 8.33399 2.6524 8.38224 2.70752 8.41985C2.76263 8.45746 2.82472 8.48365 2.89011 8.49689C2.95551 8.51013 3.02289 8.51015 3.08829 8.49695C3.1537 8.48374 3.21579 8.45758 3.27093 8.42L4.45593 7.6545C4.48409 7.76754 4.49885 7.88351 4.49993 8C4.49993 8.39782 4.34189 8.77936 4.06059 9.06066C3.77928 9.34196 3.39775 9.5 2.99993 9.5ZM8.99993 9.5C8.66764 9.50112 8.34444 9.39151 8.0814 9.18848C7.81835 8.98544 7.63044 8.70056 7.54735 8.37882C7.46427 8.05708 7.49074 7.71683 7.62259 7.41182C7.75443 7.1068 7.98414 6.85441 8.27543 6.6945L8.50693 8.0825C8.51635 8.14851 8.53887 8.21196 8.57318 8.26913C8.60748 8.3263 8.65287 8.37603 8.70669 8.4154C8.7605 8.45477 8.82164 8.48298 8.88651 8.49837C8.95138 8.51375 9.01868 8.51601 9.08444 8.50501C9.1502 8.494 9.21309 8.46996 9.26942 8.43429C9.32575 8.39862 9.37437 8.35204 9.41244 8.2973C9.4505 8.24256 9.47723 8.18076 9.49105 8.11553C9.50487 8.05031 9.50551 7.98298 9.49293 7.9175L9.26143 6.5265C9.62675 6.59594 9.95326 6.79861 10.1776 7.09518C10.402 7.39175 10.5081 7.76109 10.4756 8.13152C10.443 8.50196 10.274 8.84709 10.0013 9.09996C9.72864 9.35282 9.37177 9.49539 8.99993 9.5ZM4.35343 3.1465L5.35343 4.1465C5.40118 4.19262 5.43927 4.2478 5.46548 4.3088C5.49168 4.3698 5.50548 4.43541 5.50605 4.5018C5.50663 4.56819 5.49398 4.63403 5.46884 4.69548C5.4437 4.75693 5.40657 4.81275 5.35962 4.8597C5.31268 4.90664 5.25685 4.94377 5.1954 4.96891C5.13396 4.99405 5.06812 5.0067 5.00173 5.00613C4.93534 5.00555 4.86973 4.99176 4.80873 4.96555C4.74772 4.93935 4.69255 4.90125 4.64643 4.8535L3.79293 4H2.99993C2.86732 4 2.74014 3.94732 2.64637 3.85355C2.55261 3.75979 2.49993 3.63261 2.49993 3.5C2.49993 3.36739 2.55261 3.24021 2.64637 3.14645C2.74014 3.05268 2.86732 3 2.99993 3H3.99993C4.13252 3.00003 4.25968 3.05273 4.35343 3.1465Z" fill="#B0EFFF"/>
</svg>
