<?xml version="1.0" encoding="UTF-8"?>
<svg xmlns="http://www.w3.org/2000/svg" xmlns:xlink="http://www.w3.org/1999/xlink" width="20px" height="20px" viewBox="0 0 20 20" version="1.1">
<g id="surface1">
<path d="M 14.6875 6.878906 C 14.464844 6.878906 14.238281 6.910156 14.03125 6.960938 L 12.976562 3.96875 L 13.96875 3.96875 C 14.144531 3.96875 14.304688 3.824219 14.304688 3.632812 C 14.304688 3.441406 14.160156 3.296875 13.96875 3.296875 L 12.511719 3.296875 C 12.398438 3.296875 12.304688 3.34375 12.238281 3.441406 C 12.175781 3.519531 12.160156 3.632812 12.191406 3.742188 L 12.816406 5.503906 L 7.824219 5.503906 L 7.472656 4.910156 L 8.128906 4.910156 C 8.304688 4.910156 8.464844 4.769531 8.464844 4.574219 C 8.464844 4.382812 8.320312 4.238281 8.128906 4.238281 L 6.351562 4.238281 C 6.175781 4.238281 6.015625 4.382812 6.015625 4.574219 C 6.015625 4.769531 6.160156 4.910156 6.351562 4.910156 L 6.71875 4.910156 L 7.28125 5.855469 L 6.511719 7.152344 C 6.144531 6.992188 5.746094 6.894531 5.3125 6.894531 C 3.710938 6.894531 2.398438 8.207031 2.398438 9.808594 C 2.398438 11.40625 3.710938 12.71875 5.3125 12.71875 C 6.914062 12.71875 8.222656 11.40625 8.222656 9.808594 C 8.222656 8.863281 7.761719 8.015625 7.074219 7.488281 L 7.664062 6.496094 L 9.28125 9.214844 C 9.152344 9.375 9.070312 9.582031 9.070312 9.808594 C 9.070312 10.335938 9.488281 10.75 10.015625 10.75 C 10.542969 10.75 10.960938 10.335938 10.960938 9.808594 C 10.960938 9.601562 10.878906 9.390625 10.769531 9.230469 L 12.703125 6.160156 L 13.070312 6.160156 L 13.441406 7.183594 C 12.464844 7.664062 11.792969 8.65625 11.792969 9.808594 C 11.792969 11.40625 13.105469 12.71875 14.703125 12.71875 C 16.304688 12.71875 17.617188 11.40625 17.617188 9.808594 C 17.617188 8.207031 16.289062 6.878906 14.6875 6.878906 Z M 7.566406 9.792969 C 7.566406 11.039062 6.558594 12.046875 5.3125 12.046875 C 4.0625 12.046875 3.054688 11.039062 3.054688 9.792969 C 3.054688 8.542969 4.0625 7.535156 5.3125 7.535156 C 5.617188 7.535156 5.902344 7.601562 6.175781 7.710938 L 5.34375 9.121094 L 5.328125 9.121094 C 4.945312 9.121094 4.640625 9.425781 4.640625 9.808594 C 4.640625 10.191406 4.945312 10.496094 5.328125 10.496094 C 5.710938 10.496094 6.015625 10.191406 6.015625 9.808594 C 6.015625 9.679688 5.984375 9.566406 5.921875 9.457031 L 6.753906 8.046875 C 7.246094 8.449219 7.566406 9.089844 7.566406 9.792969 Z M 10.191406 8.863281 C 10.128906 8.847656 10.0625 8.847656 10 8.847656 C 9.9375 8.847656 9.886719 8.847656 9.839844 8.863281 L 8.222656 6.144531 L 11.921875 6.144531 Z M 14.6875 12.046875 C 13.441406 12.046875 12.433594 11.039062 12.433594 9.792969 C 12.433594 8.929688 12.929688 8.175781 13.632812 7.792969 L 14.175781 9.34375 C 14.0625 9.472656 14 9.617188 14 9.792969 C 14 10.175781 14.304688 10.480469 14.6875 10.480469 C 15.070312 10.480469 15.375 10.175781 15.375 9.792969 C 15.375 9.457031 15.136719 9.167969 14.800781 9.121094 L 14.253906 7.566406 C 14.398438 7.535156 14.542969 7.519531 14.6875 7.519531 C 15.9375 7.519531 16.945312 8.527344 16.945312 9.777344 C 16.945312 11.023438 15.9375 12.046875 14.6875 12.046875 Z M 14.6875 12.046875 " fill="#B0EFFF"/>

</g>
</svg>
