<svg width="10" height="10" viewBox="0 0 10 10" fill="none" xmlns="http://www.w3.org/2000/svg">
<g clip-path="url(#clip0_13_29)">
<path fill-rule="evenodd" clip-rule="evenodd" d="M5 0C2.23875 0 0 2.23875 0 5C0 5.34547 0.279531 5.625 0.625 5.625H4.375V8.125C4.375 9.16078 5.21422 10 6.25 10C7.28578 10 8.125 9.16078 8.125 8.125C8.125 7.77953 7.84547 7.5 7.5 7.5C7.15453 7.5 6.875 7.77953 6.875 8.125C6.875 8.47047 6.59547 8.75 6.25 8.75C5.90453 8.75 5.625 8.47047 5.625 8.125V5.625H9.375C9.72047 5.625 10 5.34547 10 5C10 2.23875 7.76125 0 5 0Z" fill="#B0EFFF"/>
</g>
<defs>
<clipPath id="clip0_13_29">
<rect width="10" height="10" fill="white"/>
</clipPath>
</defs>
</svg>
