<svg width="14" height="14" viewBox="0 0 14 14" fill="none" xmlns="http://www.w3.org/2000/svg">
<path d="M8.04868 3.24967C8.62827 3.24967 9.09851 2.74584 9.09851 2.12484C9.09851 1.50383 8.62827 1 8.04868 1C7.4691 1 6.99886 1.50383 6.99886 2.12484C6.99886 2.74584 7.4691 3.24967 8.04868 3.24967ZM10.1155 6.74369L9.60592 6.46717L9.39377 5.77821C9.07226 4.73305 8.17554 4.0019 7.15852 3.99956C6.37116 3.99722 5.93592 4.23624 5.11793 4.5901C4.64551 4.79398 4.25839 5.18064 4.03093 5.67275L3.88439 5.99146C3.71379 6.36171 3.85158 6.81165 4.19496 6.99678C4.53615 7.18191 4.95171 7.03193 5.12449 6.66167L5.27103 6.34297C5.34758 6.17893 5.47443 6.05004 5.63191 5.98208L6.21806 5.72899L5.88561 7.15144C5.77188 7.63887 5.89436 8.15676 6.2115 8.52937L7.52159 10.062C7.67906 10.2471 7.7906 10.4697 7.84747 10.7111L8.24771 12.4288C8.34176 12.8295 8.72232 13.0756 9.09632 12.9748C9.47032 12.874 9.69997 12.4663 9.60592 12.0656L9.12038 9.97993C9.06351 9.73856 8.95197 9.5136 8.7945 9.33081L7.79935 8.16614L8.17554 6.55622L8.29583 6.94288C8.41175 7.32017 8.66108 7.63184 8.98915 7.80994L9.49875 8.08646C9.83994 8.27159 10.2555 8.12161 10.4283 7.75135C10.5967 7.38344 10.4589 6.92882 10.1155 6.74369ZM5.10918 10.0409C5.03919 10.2307 4.93421 10.4017 4.79861 10.5447L3.70504 11.7187C3.43165 12.0117 3.43165 12.4874 3.70504 12.7803C3.97843 13.0732 4.42024 13.0732 4.69363 12.7803L5.99278 11.3883C6.1262 11.2454 6.23118 11.0743 6.30335 10.8845L6.59862 10.0924C5.38913 8.67934 5.7522 9.11287 5.56192 8.83401L5.10918 10.0409Z" fill="#232323"/>
</svg>
