<?xml version="1.0" encoding="UTF-8"?>
<svg width="40pt" height="40pt" version="1.1" viewBox="0 0 700 700" fill="none" xmlns="http://www.w3.org/2000/svg">
 <path fill="#B0EFFF" d="m374.5 280 162.75-162.75c7-7 7-17.5 0-24.5s-17.5-7-24.5 0l-162.75 162.75-162.75-162.75c-7-7-17.5-7-24.5 0s-7 17.5 0 24.5l162.75 162.75-162.75 162.75c-7 7-7 17.5 0 24.5 3.5 3.5 7 5.25 12.25 5.25s8.75-1.75 12.25-5.25l162.75-162.75 162.75 162.75c3.5 3.5 8.75 5.25 12.25 5.25s8.75-1.75 12.25-5.25c7-7 7-17.5 0-24.5z"/>
</svg>
